<!-- Generated by IcoMoon.io -->
<svg version="1.1" xmlns="http://www.w3.org/2000/svg" width="1122" height="1024" viewBox="0 0 1122 1024">
<title>RegistrationPage</title>
<g id="icomoon-ignore">
</g>
<path fill="#24cca7" d="M971.612 0h-19.567c-45.24 0-81.92 36.676-81.92 81.92v19.567c0 45.244 36.68 81.92 81.92 81.92h19.567c45.244 0 81.92-36.676 81.92-81.92v-19.567c0-45.244-36.676-81.92-81.92-81.92z"></path>
<path fill="#fff" d="M964.686 29.532c0.017 0 0.037 0 0.058 0 3.393 0 6.144 2.751 6.144 6.144 0 0.022 0 0.043 0 0.065v-0.003 3.228c8.442 0.991 15.884 3.723 22.585 7.942 2.236 1.241 4.469 3.473 4.469 6.947 0 4.465-3.723 7.946-8.192 7.946-1.487 0-2.978-0.5-4.465-1.245-4.964-2.978-9.929-5.21-14.893-6.451v27.795c22.090 5.46 31.519 14.393 31.519 29.782 0 15.884-12.407 26.554-30.773 28.291v8.688c0 0.018 0 0.040 0 0.062 0 3.393-2.751 6.144-6.144 6.144-0.022 0-0.043 0-0.065 0h0.003c-3.473 0-6.451-2.728-6.451-6.205v-8.933c-10.92-1.241-20.849-4.964-29.782-11.416-2.392-1.393-3.974-3.946-3.974-6.868 0-0.029 0-0.058 0-0.088v0.004c0-4.465 3.478-7.942 7.942-7.942 1.737 0 3.478 0.496 4.719 1.491 6.701 4.964 13.402 8.192 21.34 9.679v-28.295c-21.094-5.46-31.019-13.398-31.019-29.778 0-15.639 12.407-26.309 30.523-27.8v-2.978c0.25-3.473 2.978-6.205 6.455-6.205zM958.976 78.922v-25.813c-9.183 0.995-13.898 5.71-13.898 12.165 0 6.201 2.728 9.925 13.898 13.648zM970.392 99.025v26.309c9.183-0.995 14.397-5.71 14.397-12.657 0-6.205-3.228-10.179-14.397-13.652z"></path>
<path fill="#ffd8d0" d="M233.292 624.177c1.241-31.023 0.745-62.042-1.241-93.065-4.219-63.783-14.643-127.32-29.041-189.612-8.188-34.992-18.113-69.493-28.537-103.989-0.246-0.991-1.987-0.745-1.737 0.246 32.26 121.364 58.573 246.694 56.832 372.773-0.496 35.242-4.714 69.988-7.942 104.98 0 0.991 1.491 1.241 1.737 0.25 6.701-29.286 8.684-60.805 9.929-91.582z"></path>
<path fill="#ffd8d0" d="M172.737 238.006s-48.894 124.092-37.97 153.129c10.916 29.037 33.501 35.242 33.501 35.242s-29.782 42.689-8.933 82.645c20.849 39.956 67.256 38.22 70.484 83.39-0.25 0.246 2.482-189.366-57.082-354.406z"></path>
<path fill="#263238" d="M224.358 514.482v-0.745c-6.951-84.382-21.84-168.264-47.403-249.422 0-0.246-0.5-0.246-0.5 0 9.683 36.233 18.366 72.716 25.563 109.445-6.451-6.451-14.643-10.174-23.327-12.902-0.246 0-0.246 0.246 0 0.246 8.933 3.973 17.621 8.438 24.072 16.134 1.491 7.197 2.732 14.393 4.219 21.59-10.92-12.161-26.059-18.362-41.198-24.072-0.246 0-0.246 0.246 0 0.246 15.884 6.455 31.519 14.647 42.189 28.295 2.267 10.532 5.748 31.643 8.835 52.881l1.093 9.165c-7.942-8.438-17.867-13.898-29.037-16.63-0.246 0-0.496 0.496-0.246 0.496 11.661 3.228 21.586 9.929 29.532 18.862l0.246 0.25c0.995 7.197 1.987 14.643 2.732 21.84-6.205-5.21-12.902-9.183-20.353-12.411-0.246 0-0.246 0.25 0 0.25 7.696 3.228 14.397 7.942 20.353 13.652h0.246c0.745 6.947 1.741 13.898 2.236 20.845-10.865-13.064-24.824-23.191-40.771-29.304l-0.677-0.228c-0.246 0-0.496 0.246-0.246 0.496 16.348 7.276 30.005 17.99 40.529 31.297l0.169 0.222c0.25 0.25 0.745 0.496 0.995 0.25 0.991 10.67 1.982 21.344 2.728 32.014 0 0.25 0.246 0.25 0.246 0-0.594-13.032-1.392-24.377-2.447-35.647l0.218 2.887z"></path>
<path fill="#263238" d="M185.143 348.447c-8.438-5.706-19.358-8.188-29.286-9.179-0.246 0-0.246 0.246 0 0.492 10.424 1.491 19.358 5.464 29.041 9.433 0.246 0.246 0.492-0.492 0.246-0.741zM191.099 479.736c-6.701-3.969-14.393-6.205-22.086-7.447-0.246 0-0.246 0.25 0 0.5 7.692 1.487 14.643 4.219 21.84 7.692 0.246 0 0.496-0.496 0.246-0.745z"></path>
<path fill="#ffd8d0" d="M361.849 393.122c-20.349 14.393-39.956 30.773-56.586 49.385-17.621 19.857-30.523 42.193-39.707 67.26-18.366 51.122-28.541 106.467-29.532 160.821-0.5 30.527 2.232 60.555 8.684 90.337 0.246 0.991 1.737 0.745 1.737-0.25-3.659-22.819-5.75-49.127-5.75-75.923 0-29.019 2.452-57.465 7.16-85.143l-0.419 2.976c8.438-51.376 21.594-106.967 54.108-148.66 17.867-22.585 39.956-40.456 61.796-59.068 1.241-0.995-0.246-2.482-1.491-1.737z"></path>
<path fill="#ffd8d0" d="M243.22 633.61s16.876-28.295 41.198-52.617 44.921-41.693 48.144-57.823c3.228-16.134-24.568-28.045-24.568-28.045s33.751 5.956 43.184-8.192c9.183-14.143 13.648-96.297 13.648-96.297s-61.546 43.934-90.092 105.48c-28.541 61.551-31.519 137.495-31.519 137.495z"></path>
<path fill="#263238" d="M343.732 411.734c-25.813 25.313-51.872 52.613-67.256 85.873-5.214 11.416-9.679 23.327-13.652 35.488-1.196 4.22-1.958 6.617-2.755 8.999l0.523-1.802s0 0.25-0.246 0.5c-7.451 24.818-12.906 50.627-17.375 75.944 0 0.246 0.246 0.246 0.246 0 2.732-12.906 5.46-25.813 8.937-38.719h0.246c5.214-2.232 10.424-3.473 16.134-4.219 0.246 0 0.246-0.745 0-0.745-5.765 0.27-11.19 1.34-16.291 3.104l0.407-0.122c2.978-11.665 6.205-23.331 9.929-34.746 11.911-2.978 24.322-4.469 36.483-4.714 0.246 0 0.246-0.25 0-0.25-12.411-0.496-23.826 0.496-35.987 2.978 0.741-1.987 1.241-3.969 1.982-5.956 7.946-1.737 16.134-3.473 24.322-4.219 0.25 0 0.25-0.25 0-0.25-7.942 0.25-15.88 0.995-23.822 2.978 3.224-9.925 6.947-19.603 10.92-29.282 3.224-7.942 7.197-15.389 11.665-22.585 6.451-1.491 12.902-2.978 19.603-3.478 0.246 0 0.246-0.246 0-0.246-6.205-0.496-12.411 0-18.366 1.737 4.027-6.482 7.383-11.499 10.871-16.417l-0.692 1.028c13.898-2.978 27.795-5.956 41.943-3.224 0.246 0 0.246-0.25 0-0.5-13.402-3.473-26.804-1.487-40.206 1.241 1.487-1.982 2.978-3.969 4.465-5.706 8.438-2.732 16.876-3.973 25.813-3.973 0.246 0 0.246-0.246 0-0.246-8.192-0.745-16.134 0-24.072 2.232 11.416-14.148 24.072-27.55 36.483-40.702 0.741-0.25 0.246-0.745-0.25 0z"></path>
<path fill="#263238" d="M342.987 467.575c-3.973-0.496-8.192-0.991-12.161-0.496-0.492 0-0.492 0.745 0 0.991 3.973 0 8.192-0.246 12.165 0 0.246 0 0.246-0.496 0-0.496zM298.811 547.492c-6.451 0-12.902 1.737-18.862 3.719-0.246 0 0 0.25 0 0.25 6.205-1.491 12.657-1.987 18.862-3.228 0.496 0 0.496-0.741 0-0.741zM285.409 519.942c-2.732-0.25-5.46 0.25-7.942 0.745-0.246 0-0.246 0.496 0 0.496 2.732 0 5.46 0 8.192-0.496 0.246 0 0.246-0.745-0.25-0.745z"></path>
<path fill="#ffd8d0" d="M63.037 480.481c19.857 6.951 39.461 15.634 57.082 26.804 18.862 11.911 34.497 27.050 47.653 45.171 26.804 36.979 47.649 79.663 61.051 123.343 7.447 24.572 12.165 49.639 13.898 75.203 0 0.991-1.241 0.991-1.487 0.246-5.71-44.175-18.366-87.359-37.229-127.812-18.612-39.461-42.189-81.654-78.176-107.962-19.608-14.143-41.697-23.577-63.537-33.501-1.241-0.25-0.492-1.987 0.745-1.491z"></path>
<path fill="#ffd8d0" d="M214.426 647.758s-20.099-18.862-45.412-33.010c-25.313-14.148-46.162-23.331-52.367-35.738-6.205-12.411 13.402-28.295 13.402-28.295s-26.059 12.661-36.733 3.478c-10.67-9.433-33.255-74.703-33.255-74.703s59.814 21.344 97.288 64.528c37.229 42.684 57.082 103.739 57.082 103.739z"></path>
<path fill="#263238" d="M211.452 634.106c-30.032-56.336-69.988-107.213-124.838-140.718 14.397 9.183 27.8 19.853 40.206 31.269-11.166-0.246-22.335 1.491-32.264 6.701-0.246 0 0 0.496 0.246 0.25 10.924-3.723 21.594-6.205 33.26-5.71 0.246 0 0.246 0 0.496-0.246 1.987 1.737 3.973 3.723 5.71 5.706-6.218 0.267-12.093 1.068-17.779 2.362l0.658-0.126c-0.254 0 0 0.246 0 0.246 6.201-1.241 11.907-1.487 18.113-1.487 9.646 9.88 18.9 20.313 27.642 31.175l0.653 0.839c-3.973-0.496-8.192-0.25-12.165 0.991-0.246 0-0.246 0.496 0 0.496 4.469-0.496 8.438-0.496 12.906-0.246 1.741 1.987 3.228 4.219 4.964 6.205-12.411-0.745-24.322 0.496-36.483 3.473-0.246 0-0.246 0.25 0 0.25 12.411-2.482 24.822-3.228 37.478-2.482 1.487 1.982 2.978 4.219 4.465 6.201-7.442-0.246-14.393 0.745-21.59 2.482-0.246 0-0.246 0.5 0 0.5 7.447-1.741 14.889-1.987 22.335-1.741 5.046 6.808 11.174 15.623 17.087 24.592l1.525 2.462c-3.224-0.745-6.451-0.25-9.429 0.496-0.246 0 0 0.25 0 0.25 3.473-0.5 6.701 0 10.174 0.496 5.46 8.188 10.424 16.626 15.389 25.068 0.496 1.487 1.487 0.991 1.241 0.246z"></path>
<path fill="#263238" d="M164.794 587.448c-5.956-0.496-11.915 0.496-17.375 2.232-0.246 0 0 0.25 0 0.25 5.71-0.995 11.42-1.491 17.375-1.737 0.246 0 0.246-0.745 0-0.745zM112.427 518.951c-0.675-0.058-1.46-0.091-2.252-0.091-2.016 0-3.982 0.214-5.877 0.619l0.183-0.033c-0.246 0-0.246 0.496 0 0.496 2.732-0.246 5.214-0.246 7.946-0.246 0.496 0 0.496-0.745 0-0.745z"></path>
<path fill="#455a64" d="M291.86 834.638h-135.258l19.112-141.218 4.964-36.233h86.86l4.964 36.233 19.358 141.218z"></path>
<path fill="#263238" d="M272.507 693.42h-96.797l4.964-36.233h86.86l4.964 36.233z"></path>
<path fill="#455a64" d="M279.949 644.53h-111.682v30.773h111.682v-30.773z"></path>
<path fill="#ebebeb" d="M285.409 126.075h-65.769v27.8h65.769v-27.8zM248.676 161.071h-65.765v27.795h65.765v-27.795z"></path>
<path fill="#4a56e2" d="M584.966 1024c271.393 0 491.401-31.666 491.401-70.734 0-39.064-220.008-70.73-491.401-70.73s-491.401 31.666-491.401 70.73c0 39.068 220.008 70.734 491.401 70.734z"></path>
<path fill="#263238" d="M809.57 56.336v799.146c0 23.581-18.862 42.689-41.943 42.689h-413.221c-23.085 0-41.943-19.108-41.943-42.689v-799.146c0-23.577 18.862-42.684 41.943-42.684h413.471c22.831 0.246 41.693 19.358 41.693 42.684z"></path>
<path fill="#fff" d="M783.512 96.543v732.881c0 22.34-16.876 40.456-37.474 40.456h-369.795c-20.849 0-37.474-18.117-37.474-40.456v-732.881c0-45.666 16.876-55.841 37.478-55.841h73.957c4.219 0 7.692 4.964 7.692 10.92v2.732c0 14.143 7.692 14.393 17.371 14.393h171.246c9.683 0 17.375 0 17.375-14.393v-2.732c0-5.956 3.473-10.92 7.692-10.92h74.207c20.849 0.246 37.724 14.148 37.724 55.841z"></path>
<path fill="#fff" d="M584.471 50.876h-46.658c-1.637-0.020-2.959-1.341-2.982-2.976v-0.002c0-1.487 1.241-2.978 2.982-2.978h46.658c1.487 0 2.978 1.241 2.978 2.978-0.25 1.737-1.491 2.978-2.978 2.978z"></path>
<path fill="#4a56e2" d="M737.845 366.813l0.496 198.3c0 0.024 0 0.053 0 0.082 0 11.057-8.964 20.021-20.021 20.021-0.029 0-0.058 0-0.087 0h0.004l-314.446 0.741c-0.026 0-0.056 0-0.086 0-11.055 0-20.017-8.962-20.017-20.017 0-0.030 0-0.061 0-0.091v0.005l-0.492-198.296c-0.001-0.054-0.001-0.117-0.001-0.181 0-10.18 8.252-18.432 18.432-18.432 0.062 0 0.124 0 0.186 0.001h-0.009l317.178-0.745c10.424 0 18.862 8.438 18.862 18.612z"></path>
<path fill="#37474f" d="M687.034 539.951c0.117-0.777 0.183-1.674 0.183-2.587 0-10.143-8.222-18.365-18.365-18.365-9.23 0-16.87 6.81-18.17 15.679l-0.012 0.1c-0.080 0.645-0.126 1.391-0.126 2.148 0 10.146 8.225 18.371 18.371 18.371 9.077 0 16.617-6.583 18.104-15.236l0.016-0.109z"></path>
<path fill="#ffc727" d="M710.050 537.313c0 10.179-8.192 18.366-18.366 18.616-10.174 0-18.366-8.192-18.612-18.366 0-10.174 8.188-18.366 18.366-18.612 10.174 0 18.612 8.188 18.612 18.362zM469.311 429.109h-45.666c-5.741-0.037-10.386-4.683-10.42-10.421v-25.071c0.035-5.742 4.679-10.387 10.417-10.424h45.67c5.743 0.035 10.39 4.681 10.424 10.421v25.071c0 5.706-4.714 10.174-10.424 10.424z"></path>
<path fill="#fff" d="M696.898 407.515h-30.032c-6.978-0.030-12.627-5.679-12.657-12.654v-0.003c0.030-6.978 5.679-12.627 12.654-12.657h30.035c6.978 0.030 12.627 5.679 12.657 12.654v0.003c0 7.197-5.46 12.657-12.657 12.657z"></path>
<path fill="#f8f8f8" d="M410.989 471.052l-2.728 1.487h-0.246c-0.25 0-0.5-0.25-0.5-0.25-0.246-0.246 0-0.741 0.246-0.991l3.723-2.232c0.25-0.25 0.745 0 0.995 0.246v18.121c0 0.246-0.25 0.741-0.745 0.741-0.25 0-0.745-0.246-0.745-0.741v-16.38zM416.948 487.182l8.933-8.192c0.991-0.991 1.737-2.232 1.737-3.723 0-1.241-0.496-2.478-1.241-3.224-0.991-0.995-2.232-1.737-3.723-1.737-1.241 0-2.482 0.496-3.473 1.241l-0.991 0.741c-0.132 0.117-0.307 0.188-0.498 0.188s-0.366-0.071-0.498-0.188l0.001 0.001c-0.246-0.246-0.246-0.741 0-0.991l0.995-0.991c1.237-0.995 2.728-1.741 4.219-1.741 1.737 0 3.473 0.745 4.714 1.987s1.737 2.732 1.737 4.219c0 1.737-0.745 3.478-1.987 4.719l-7.692 6.947h9.183c0.246 0 0.745 0.25 0.745 0.745 0 0.246-0.25 0.745-0.745 0.745h-10.674c-0.246 0-0.496 0-0.496-0.25-0.496 0.25-0.496-0.25-0.246-0.496zM444.989 470.307l-4.96 5.21c1.237 0.25 2.478 0.745 3.224 1.737 1.241 1.241 1.987 2.978 1.987 4.719-0.043 3.683-3.018 6.658-6.697 6.701h-0.004c-1.737 0-3.228-0.745-4.714-1.987-0.117-0.132-0.188-0.307-0.188-0.498s0.071-0.366 0.188-0.498l-0.001 0.001c0.246-0.246 0.741-0.246 0.991 0 0.991 0.995 2.232 1.491 3.723 1.491 1.241 0 2.728-0.496 3.723-1.491 0.991-0.991 1.487-2.232 1.487-3.719 0-1.241-0.496-2.732-1.487-3.723-0.915-0.922-2.182-1.493-3.583-1.493-0.049 0-0.098 0.001-0.147 0.002h0.007c-0.25 0-0.496 0-0.496-0.246-0.117-0.132-0.188-0.307-0.188-0.498s0.071-0.366 0.188-0.498l-0.001 0.001 4.714-4.964h-7.447c-0.496 0-0.741-0.246-0.741-0.741 0-0.5 0.246-0.745 0.741-0.745h8.937c0.496 0 0.741 0.246 0.741 0.745 0.25 0 0 0.246 0 0.496 0 0 0-0.25 0 0zM461.124 484.45h-10.424c-0.25 0-0.25 0-0.496-0.246-0.25-0.25-0.25-0.745 0-0.991l11.166-13.902c0.133-0.114 0.307-0.184 0.498-0.184s0.365 0.070 0.499 0.185l-0.001-0.001 0.246 0.25v13.152h1.241c0.496 0 0.745 0.25 0.745 0.745 0 0.25-0.25 0.745-0.745 0.745h-1.241v3.228c0 0.246-0.246 0.741-0.741 0.741-0.25 0-0.745-0.246-0.745-0.741v-2.982zM461.124 482.963v-11.416l-9.183 11.416h9.183zM485.446 486.437c-0.25-0.246-0.25-0.745 0-0.991 0.246-0.25 0.741-0.25 0.991 0 0.991 0.991 2.232 1.487 3.723 1.487 1.241 0 2.728-0.496 3.723-1.487 0.991-0.991 1.487-2.232 1.487-3.723 0-1.241-0.496-2.728-1.487-3.723-0.917-0.92-2.185-1.489-3.586-1.489-0.048 0-0.097 0.001-0.145 0.002h0.007c-1.241 0-2.732 0.496-3.723 1.487-0.25 0.25-0.745 0.25-0.991 0l-0.25-0.246v-0.5l0.991-7.692c0-0.25 0-0.496 0.25-0.496 0 0 0.25-0.25 0.496-0.25h8.933c0.5 0 0.745 0.25 0.745 0.745s-0.246 0.745-0.745 0.745h-8.438l-0.741 5.706c0.991-0.496 2.232-0.991 3.224-0.991 1.737 0 3.228 0.496 4.719 1.987 1.237 1.241 1.982 2.978 1.982 4.714s-0.496 3.473-1.982 4.714c-1.21 1.209-2.874 1.964-4.714 1.987h-0.004c-1.487-0.25-3.224-0.745-4.465-1.987zM503.812 473.035c1.237-2.232 3.473-3.969 6.697-4.219 0.25 0 0.745 0.25 0.745 0.745s-0.246 0.745-0.745 0.745c-2.728 0-4.465 1.487-5.706 3.473-0.745 1.241-0.991 2.482-1.491 3.973 1.241-1.241 2.978-2.236 4.719-2.236 3.473 0 6.451 2.732 6.451 6.455 0 3.473-2.732 6.451-6.451 6.451-3.478 0-6.205-2.732-6.455-6.205v-1.241c0.25-2.728 0.745-5.46 2.236-7.942zM503.312 481.972v0.496c0.313 2.502 2.408 4.424 4.96 4.465h0.004c2.732 0 4.964-2.232 4.964-4.96 0-2.732-2.232-4.964-5.21-4.964-2.482-0.25-4.719 1.987-4.719 4.964zM521.679 487.182l7.197-16.876h-9.429c-0.25 0-0.745-0.25-0.745-0.745 0-0.25 0.25-0.745 0.745-0.745h10.67c0.25 0 0.25 0.25 0.25 0.496v0.5l-7.447 17.867c0 0.25-0.25 0.496-0.496 0.496h-0.25c-0.496-0.246-0.496-0.741-0.496-0.991zM540.791 468.816c2.232 0 3.969 1.737 3.969 3.973 0 1.241-0.745 2.482-1.737 3.224 2.232 0.995 3.969 3.228 3.969 5.71 0 0.018 0 0.040 0 0.062 0 3.393-2.751 6.144-6.144 6.144-0.020 0-0.041 0-0.061 0h0.003c-0.018 0-0.040 0-0.062 0-3.393 0-6.144-2.751-6.144-6.144 0-0.022 0-0.043 0-0.065v0.003c0-2.482 1.487-4.964 3.969-5.71-0.991-0.741-1.487-1.982-1.487-3.224-0.25-2.236 1.487-3.973 3.723-3.973zM540.791 486.687c2.728 0 4.96-2.232 4.96-4.964 0-2.728-2.232-4.964-4.96-4.964-2.732 0-4.964 2.236-4.964 4.964 0 2.978 2.232 4.964 4.964 4.964zM540.791 475.517c1.501-0.014 2.714-1.227 2.728-2.727v-0.001c-0.011-1.503-1.225-2.718-2.727-2.732h-0.001c-1.503 0.014-2.718 1.229-2.732 2.731v0.001c0 1.487 1.241 2.728 2.732 2.728zM575.037 468.816c3.228 0 5.956 2.482 6.455 5.71v1.987c0 2.482-0.5 5.46-1.737 7.692-1.241 2.232-3.478 3.969-6.701 4.219-0.5 0-0.745-0.25-0.745-0.745s0.246-0.745 0.745-0.745c2.728 0 4.465-1.487 5.706-3.473 0.745-1.241 1.241-2.482 1.491-3.969-1.241 1.241-2.978 2.232-4.719 2.232-0.013 0-0.029 0-0.045 0-3.538 0-6.406-2.868-6.406-6.406 0-0.016 0-0.032 0-0.048v0.002c-0.25-3.723 2.482-6.455 5.956-6.455zM580.252 475.021c0-2.728-2.236-4.964-4.964-4.964-2.732 0-4.964 2.236-4.964 4.964 0 2.732 2.232 4.964 4.964 4.964 2.728 0 4.964-2.232 4.964-4.964zM586.453 478.249c0-2.482 0.745-4.964 1.741-6.701 1.237-1.741 2.978-2.982 4.714-2.982 1.982 0 3.723 1.241 4.714 2.982 1.241 1.737 1.987 4.219 1.987 6.701 0 2.478-0.745 4.96-1.737 6.701-1.241 1.737-2.982 2.978-4.719 2.978-1.982 0-3.723-1.241-4.714-2.978-1.241-1.741-1.987-3.973-1.987-6.701zM587.694 478.249c0 2.478 0.745 4.465 1.737 5.956 0.995 1.487 2.236 2.232 3.723 2.232 1.491 0 2.732-0.745 3.723-2.232 0.995-1.491 1.737-3.723 1.737-5.956 0-2.482-0.741-4.469-1.737-5.96-0.991-1.487-2.232-2.232-3.723-2.232-1.487 0-2.728 0.745-3.723 2.232-1.081 1.689-1.727 3.748-1.737 5.957v0.003zM608.793 470.553l-2.732 1.491h-0.25c-0.246 0-0.496-0.25-0.496-0.25-0.246-0.246 0-0.745 0.25-0.991l3.723-2.236c0.246-0.246 0.745 0 0.991 0.25v18.117c0 0.25-0.246 0.745-0.745 0.745-0.246 0-0.741-0.25-0.741-0.745v-16.38zM614.748 486.687l8.933-8.192c0.995-0.991 1.737-2.232 1.737-3.723 0-1.241-0.496-2.482-1.241-3.224-0.991-0.995-2.232-1.737-3.723-1.737-1.241 0-2.478 0.496-3.473 1.237l-0.991 0.745c-0.132 0.117-0.307 0.188-0.498 0.188s-0.366-0.071-0.498-0.188l0.001 0.001c-0.246-0.246-0.246-0.745 0-0.991l0.995-0.991c1.241-0.995 2.728-1.741 4.219-1.741 1.737 0 3.473 0.745 4.714 1.987s1.737 2.732 1.737 4.219c0 1.737-0.745 3.473-1.982 4.714l-7.696 6.951h9.183c0.25 0 0.745 0.25 0.745 0.745 0 0.246-0.25 0.745-0.745 0.745h-10.67c-0.25 0-0.5 0-0.5-0.25-0.496 0.25-0.496-0.25-0.246-0.496zM659.173 469.807l-4.964 5.214c1.241 0.246 2.482 0.745 3.228 1.737 1.241 1.241 1.982 2.978 1.982 4.714-0.037 3.686-3.015 6.664-6.698 6.701h-0.003c-1.737 0-3.224-0.745-4.714-1.987-0.246-0.246-0.246-0.741 0-0.991 0.25-0.246 0.745-0.246 0.991 0 0.995 0.991 2.236 1.491 3.723 1.491 1.241 0 2.732-0.5 3.723-1.491 0.922-0.913 1.493-2.18 1.493-3.58 0-0.050-0.001-0.101-0.002-0.151v0.007c0-1.241-0.496-2.728-1.491-3.723-0.915-0.92-2.181-1.489-3.581-1.489-0.050 0-0.1 0.001-0.15 0.002h0.007c-0.246 0-0.496 0-0.496-0.25-0.246-0.246-0.246-0.745 0-0.991l4.714-4.964h-7.442c-0.496 0-0.745-0.25-0.745-0.745s0.25-0.745 0.745-0.745h8.933c0.496 0 0.745 0.25 0.745 0.745 0.246 0 0.246 0 0 0.496 0.246-0.246 0.246-0.246 0 0zM675.553 483.709h-10.424c-0.25 0-0.25 0-0.496-0.25-0.25-0.25-0.25-0.745 0-0.991l11.166-13.898c0.132-0.117 0.307-0.188 0.498-0.188s0.366 0.071 0.498 0.188l0.245 0.245v13.152h1.241c0.496 0 0.745 0.25 0.745 0.745 0 0.25-0.25 0.745-0.745 0.745h-1.241v3.228c0 0.246-0.246 0.741-0.745 0.741-0.246 0-0.741-0.246-0.741-0.741v-2.978zM675.553 482.468v-11.42l-9.183 11.42h9.183zM683.246 485.941c-0.25-0.25-0.25-0.745 0-0.991 0.25-0.25 0.745-0.25 0.991 0 0.995 0.991 2.236 1.487 3.723 1.487 1.241 0 2.732-0.496 3.723-1.487 0.991-0.995 1.491-2.236 1.491-3.723 0-1.241-0.5-2.732-1.491-3.723-0.913-0.922-2.18-1.493-3.58-1.493-0.050 0-0.101 0.001-0.151 0.002h0.007c-1.241 0-2.728 0.496-3.723 1.491-0.246 0.246-0.741 0.246-0.991 0l-0.25-0.25v-0.496l0.995-7.692c0-0.25 0-0.496 0.246-0.496 0 0 0.25-0.25 0.5-0.25h8.933c0.496 0 0.745 0.25 0.745 0.745s-0.25 0.741-0.745 0.741h-8.438l-0.745 5.71c0.991-0.496 2.232-0.991 3.228-0.991 1.737 0 3.224 0.496 4.714 1.982 1.241 1.241 1.987 2.982 1.987 4.719s-0.5 3.473-1.987 4.714c-1.208 1.209-2.871 1.964-4.71 1.987h-0.004c-1.491-0.25-3.228-0.745-4.469-1.987zM701.612 472.539c1.241-2.232 3.473-3.969 6.701-4.219 0.246 0 0.745 0.25 0.745 0.745s-0.25 0.741-0.745 0.741c-2.732 0-4.469 1.491-5.71 3.478-0.745 1.241-0.991 2.482-1.487 3.969 1.241-1.241 2.978-2.232 4.714-2.232 3.473 0 6.451 2.728 6.451 6.451 0 3.478-2.728 6.455-6.451 6.455-3.473 0-6.205-2.732-6.455-6.205v-1.241c0.25-2.732 0.745-5.71 2.236-7.942zM701.116 481.473v0.496c0.311 2.503 2.405 4.426 4.956 4.469h0.004c2.732 0 4.964-2.232 4.964-4.964 0-2.728-2.232-4.964-5.21-4.964-2.482-0.246-4.714 1.987-4.714 4.964z"></path>
<path fill="#263238" d="M581.98 521.216l-168.518 0.434 0.020 8.192 168.518-0.438-0.020-8.188zM532.591 539.644l-119.128 0.307 0.020 8.192 119.128-0.311-0.020-8.188zM642.535 382.591l-83.886 0.217 0.020 8.192 83.886-0.221-0.020-8.192zM385.925 308.74c0-0.25 0.246-0.745 0.741-0.745h4.964c2.872 0.016 5.196 2.339 5.214 5.208v0.002c-0.016 2.873-2.341 5.198-5.213 5.214h-4.467v7.197c0 0.246-0.25 0.745-0.745 0.745-0.246 0-0.745-0.25-0.745-0.745v-16.876h0.246zM391.631 317.424c2.236 0 3.973-1.737 3.973-3.973 0-0.015 0-0.032 0-0.050 0-2.165-1.755-3.92-3.92-3.92-0.019 0-0.038 0-0.056 0h-4.462v7.946h4.465zM411.488 314.2v11.416c0 0.246-0.25 0.745-0.745 0.745-0.25 0-0.745-0.246-0.745-0.745v-1.987c-1.030 1.506-2.74 2.482-4.678 2.482-0.013 0-0.026 0-0.039 0h0.002c-3.228 0-5.956-2.978-5.956-6.451 0-3.478 2.728-6.455 5.956-6.455 1.982 0 3.723 0.995 4.714 2.482v-1.982c0-0.25 0.25-0.745 0.745-0.745 0.496 0.741 0.745 0.991 0.745 1.241zM410.247 319.906c0-2.728-2.236-5.21-4.719-5.21s-4.71 2.232-4.71 5.21c0 2.732 2.228 5.214 4.71 5.214s4.719-2.236 4.719-5.214zM416.698 314.2c0-0.246 0.25-0.496 0.496-0.496 0.25 0 0.745 0.246 0.745 0.492v6.951c0 2.236 1.737 3.973 3.969 3.973 2.236 0 3.973-1.737 3.973-3.973v-7.188l0.25-0.25s0.246 0 0.246 0.246l0.25 0.246v11.42c0 3.228-2.732 5.956-5.956 5.956-0.995 0-1.741-0.246-2.732-0.496-0.25-0.246-0.496-0.496-0.25-0.745 0.25-0.246 0.5-0.492 0.745-0.246 0.745 0.246 1.241 0.492 1.987 0.492 2.728 0 4.714-1.982 4.714-4.71v-0.745c-0.991 0.991-2.232 1.737-3.969 1.737-2.872-0.016-5.196-2.339-5.214-5.208v-7.449h0.745zM450.949 318.915c0-0.015 0-0.032 0-0.049 0-2.167-1.757-3.924-3.924-3.924-0.017 0-0.035 0-0.052 0h0.003c-0.015 0-0.032 0-0.050 0-2.165 0-3.92 1.755-3.92 3.92 0 0.019 0 0.038 0 0.056v-0.003 6.951c0 0.246-0.25 0.246-0.25 0.246h-0.496v-6.947c0-0.016 0-0.035 0-0.054 0-2.165-1.755-3.92-3.92-3.92-0.019 0-0.038 0-0.056 0h0.003c-0.015 0-0.032 0-0.050 0-2.165 0-3.92 1.755-3.92 3.92 0 0.019 0 0.038 0 0.056v-0.003 6.947c0 0.246 0 0.496-0.25 0.496h-0.246c-0.265-0.018-0.475-0.227-0.496-0.49v-11.917c0-0.246 0.246-0.496 0.496-0.496 0.246 0 0.745 0.246 0.745 0.492v1.245c0.991-0.995 2.232-1.737 3.969-1.737 1.987 0 3.723 0.991 4.469 2.728 0.991-1.487 2.728-2.728 4.465-2.728 2.872 0.016 5.196 2.339 5.214 5.208v6.953c0 0.246-0.25 0.492-0.745 0.492-0.265-0.018-0.475-0.227-0.496-0.49v-6.953h-0.496zM456.655 320.156c0-3.473 2.732-6.451 6.205-6.451 3.228 0 5.956 2.482 6.205 5.956 0 0.246-0.25 0.496-0.745 0.496h-10.424c0.25 2.728 2.232 4.964 4.964 4.964 1.737 0 3.228-0.995 3.969-2.236 0.25-0.246 0.5-0.246 0.745-0.246 0.25 0.246 0.496 0.496 0.25 0.991-1.073 1.795-3.005 2.978-5.214 2.978 0 0 0 0 0 0v0c-3.341-0.285-5.945-3.062-5.956-6.45v-0.001zM457.896 318.915h9.679c-0.496-2.482-2.482-4.219-4.714-4.219-2.482 0.246-4.469 1.987-4.964 4.219zM482.468 318.915c0-0.016 0-0.035 0-0.054 0-2.165-1.755-3.92-3.92-3.92-0.019 0-0.038 0-0.056 0h0.003c-0.015 0-0.032 0-0.050 0-2.165 0-3.92 1.755-3.92 3.92 0 0.019 0 0.038 0 0.056v-0.003 6.951s0 0.246-0.25 0.246c0 0.246-0.246 0.246-0.496 0.246h-0.25c-0.246 0-0.246-0.246-0.496-0.246v-11.661c0-0.25 0.25-0.745 0.745-0.745 0.25 0 0.496 0.246 0.496 0.741v1.241c0.995-0.991 2.232-1.737 3.973-1.737 2.871 0.018 5.194 2.342 5.21 5.213v6.949c0 0.246-0.25 0.745-0.745 0.745-0.246 0-0.745-0.246-0.745-0.745v-7.197h0.5zM493.634 314.2c0 0.246-0.246 0.745-0.741 0.745h-1.491v9.179c0 0.745 0.745 0.995 0.991 0.995 0.25 0 0.745 0.246 0.745 0.745 0 0.246-0.246 0.741-0.745 0.741-0.002 0-0.005 0-0.008 0-1.228 0-2.224-0.996-2.224-2.224 0-0.003 0-0.006 0-0.009v0-9.183h-1.491c-0.741 0-0.741-0.246-0.741-0.745 0-0.246 0-0.741 0.741-0.741h1.491v-4.719c0-0.246 0.25-0.741 0.745-0.741 0.246 0 0.745 0.246 0.745 0.741v4.719h1.737s0.246 0.246 0.246 0.492zM525.402 318.915c0-0.016 0-0.035 0-0.054 0-2.165-1.755-3.92-3.92-3.92-0.019 0-0.038 0-0.056 0h0.003c-0.015 0-0.032 0-0.050 0-2.165 0-3.92 1.755-3.92 3.92 0 0.019 0 0.038 0 0.056v-0.003 6.951c0 0.246-0.25 0.246-0.25 0.246h-0.496v-6.947c0-0.016 0-0.035 0-0.054 0-2.165-1.755-3.92-3.92-3.92-0.017 0-0.035 0-0.052 0h0.003c-0.016 0-0.035 0-0.054 0-2.165 0-3.92 1.755-3.92 3.92 0 0.019 0 0.038 0 0.056v-0.003 6.947c0 0.246 0 0.496-0.246 0.496h-0.25c-0.246 0-0.496-0.246-0.496-0.492v-11.915c0-0.246 0.25-0.496 0.496-0.496 0.25 0 0.745 0.246 0.745 0.492v1.245c0.991-0.995 2.232-1.737 3.969-1.737 1.987 0 3.723 0.991 4.469 2.728 0.991-1.487 2.732-2.728 4.469-2.728 2.87 0.018 5.192 2.34 5.21 5.208v6.953c0 0.246-0.25 0.492-0.745 0.492-0.246 0-0.496-0.246-0.496-0.492v-6.951h-0.496zM531.112 320.156c0-3.473 2.728-6.451 6.201-6.451 3.228 0 5.96 2.482 6.205 5.956 0 0.246-0.246 0.496-0.745 0.496h-10.424c0.25 2.728 2.236 4.964 4.964 4.964 1.737 0 3.228-0.995 3.973-2.236 0.246-0.246 0.496-0.246 0.745-0.246 0.246 0.246 0.496 0.496 0.246 0.991-1.071 1.795-3.002 2.978-5.209 2.978 0 0 0 0-0.001 0v0c-3.341-0.285-5.945-3.062-5.956-6.45v-0.001zM532.349 318.915h9.683c-0.5-2.482-2.482-4.219-4.719-4.219-2.482 0.246-4.465 1.987-4.964 4.219zM551.211 314.2c0 0.246-0.246 0.745-0.741 0.745h-1.737v9.179c0 0.745 0.741 0.995 0.991 0.995 0.246 0 0.745 0.246 0.745 0.745 0 0.246-0.25 0.741-0.745 0.741-0.002 0-0.005 0-0.008 0-1.228 0-2.224-0.996-2.224-2.224 0-0.003 0-0.006 0-0.009v0-9.183h-1.491c-0.745 0-0.745-0.246-0.745-0.745 0-0.246 0-0.741 0.745-0.741h1.491v-4.719c0-0.246 0.246-0.741 0.741-0.741 0.25 0 0.745 0.246 0.745 0.741v4.719h1.737c0.265 0.018 0.475 0.227 0.496 0.49v0.002zM565.854 318.669c0-2.236-1.737-3.727-3.969-3.727s-3.973 1.491-3.973 3.727v6.947c0 0.246-0.246 0.246-0.496 0.246-0.246 0-0.246 0-0.496-0.246v-17.375c0-0.246 0.25-0.741 0.745-0.741 0.246 0 0.745 0.246 0.745 0.741v6.701c0.991-1.237 2.482-1.982 3.969-1.982 2.978 0 5.21 1.982 5.21 4.964v6.947c0 0.246-0.246 0.745-0.741 0.745-0.25 0-0.496-0.246-0.496-0.745v-6.201h-0.5zM578.015 313.704c3.228 0 5.96 2.978 5.96 6.451s-2.732 6.451-5.96 6.451c-3.224 0-5.956-2.978-5.956-6.451-0.011-0.134-0.017-0.289-0.017-0.447 0-3.305 2.67-5.986 5.97-6.005h0.002zM578.015 325.12c2.482 0 4.719-2.236 4.719-5.214 0-2.728-2.236-5.21-4.719-5.21s-4.714 2.232-4.714 5.21c-0.018 0.154-0.028 0.332-0.028 0.512 0 2.597 2.105 4.702 4.702 4.702 0.014 0 0.028 0 0.042 0h-0.002zM598.864 323.879c-0.991 1.491-2.978 2.482-4.964 2.482-0.018 0-0.040 0-0.062 0-3.393 0-6.144-2.751-6.144-6.144 0-0.022 0-0.043 0-0.065v0.003c0-3.473 2.732-6.451 6.205-6.451 1.987 0 3.723 0.991 4.964 2.482v-7.201c0-0.246 0.25-0.741 0.745-0.741 0.246 0 0.496 0.246 0.496 0.741v16.88c0 0.246-0.25 0.741-0.496 0.741-0.25 0-0.745-0.246-0.745-0.741v-1.987zM598.864 320.156v-0.496c0-2.732-2.232-4.964-4.964-4.964-2.728 0-4.964 2.232-4.964 5.21 0 2.732 2.236 4.964 4.964 4.964 2.732 0.246 4.964-1.982 4.964-4.714zM390.636 187.38h-5.456c-0.246 0-0.745-0.25-0.745-0.745 0-0.246 0.246-0.745 0.745-0.745h12.161c0.246 0 0.745 0.246 0.745 0.745 0 0.246-0.25 0.745-0.745 0.745h-5.46v16.13c0 0.246-0.246 0.745-0.745 0.745-0.246 0-0.745-0.246-0.745-0.745v-16.13h0.246zM404.287 191.599c3.228 0 5.96 2.978 5.96 6.451s-2.732 6.451-5.96 6.451c-3.224 0-5.956-2.978-5.956-6.451s2.732-6.451 5.956-6.451zM404.287 203.014c2.482 0 4.719-2.232 4.719-5.214 0-2.728-2.236-5.21-4.719-5.21s-4.71 2.232-4.71 5.21c0 2.982 2.228 5.214 4.71 5.214zM419.181 192.34c0 0.246-0.25 0.745-0.745 0.745h-1.487v9.183c0 0.745 0.741 0.991 0.991 0.991s0.745 0.25 0.745 0.745c0 0.246-0.25 0.745-0.745 0.745-0.002 0-0.005 0-0.008 0-1.228 0-2.224-0.996-2.224-2.224 0-0.003 0-0.006 0-0.009v0-9.187h-1.491c-0.745 0-0.745-0.246-0.745-0.745 0-0.246 0-0.745 0.745-0.745h1.491v-4.714c0-0.246 0.246-0.745 0.741-0.745 0.25 0 0.745 0.246 0.745 0.745v4.714h1.737c-0.246-0.246 0.25 0.246 0.25 0.496zM434.815 192.344v11.416c0 0.246-0.246 0.741-0.745 0.741-0.246 0-0.741-0.246-0.741-0.741v-1.987c-1.031 1.507-2.741 2.482-4.68 2.482-0.014 0-0.027 0-0.041 0h0.002c-3.224 0-5.956-2.978-5.956-6.451 0-3.478 2.732-6.455 5.956-6.455 1.987 0 3.723 0.991 4.719 2.482v-1.987c0-0.246 0.246-0.741 0.741-0.741 0.5 0.492 0.745 0.741 0.745 1.241zM433.574 198.050c0-2.728-2.232-5.21-4.714-5.21s-4.714 2.232-4.714 5.21c0 2.732 2.232 5.214 4.714 5.214 2.651-0.233 4.715-2.442 4.715-5.134 0-0.028 0-0.056-0.001-0.084v0.004zM440.771 186.88c0-0.246 0.25-0.741 0.745-0.741 0.25 0 0.745 0.246 0.745 0.741v16.876c0 0.25-0.25 0.745-0.745 0.745-0.246 0-0.745-0.246-0.745-0.741v-16.876zM454.918 198.3v-5.96c0-0.246 0.25-0.741 0.745-0.741 0.246 0 0.745 0.246 0.745 0.741v1.741c1.029-1.506 2.738-2.482 4.675-2.482 0.014 0 0.027 0 0.041 0h-0.002c0.018 0 0.040 0 0.062 0 3.393 0 6.144 2.751 6.144 6.144 0 0.020 0 0.041 0 0.061v-0.003c0 0.018 0 0.040 0 0.062 0 3.393-2.751 6.144-6.144 6.144-0.022 0-0.043 0-0.065 0h0.003c-1.987 0-3.723-0.991-4.714-2.482v7.197c0 0.25-0.25 0.745-0.745 0.745-0.25 0-0.745-0.246-0.745-0.745v-10.42zM456.159 198.050c0 2.732 2.232 4.964 4.714 4.964 2.732 0 4.964-2.232 4.964-4.964 0-2.728-2.232-4.964-4.964-4.964-2.482-0.246-4.465 1.987-4.714 4.964zM472.044 192.34c0-0.246 0.246-0.741 0.745-0.741 0.246 0 0.496 0.246 0.496 0.741v2.732s0-0.246 0.246-0.246c0.995-1.491 2.732-3.228 4.964-3.228 0.25 0 0.745 0.246 0.745 0.741 0 0.25-0.25 0.745-0.745 0.745-1.737 0-2.728 0.991-3.723 1.987-0.741 1.241-1.241 2.482-1.487 2.978v5.71c0 0.246-0.25 0.741-0.496 0.741-0.25 0-0.745-0.246-0.745-0.741v-11.42zM483.459 188.121c0-0.246 0.25-0.741 0.745-0.741 0.246 0 0.745 0.246 0.745 0.741v0.5c0 0.246-0.25 0.741-0.745 0.741-0.25 0-0.745-0.246-0.745-0.741v-0.5zM483.459 192.34c0-0.246 0.25-0.741 0.745-0.741 0.246 0 0.745 0.246 0.745 0.741v11.42c0 0.246-0.25 0.741-0.745 0.741-0.25 0-0.745-0.246-0.745-0.741v-11.42zM489.665 198.050c0-3.473 2.978-6.205 6.451-6.205 1.491 0 2.978 0.496 3.973 1.491 0.246 0.246 0.246 0.492 0 0.741-0.25 0.25-0.496 0.25-0.745 0-0.991-0.741-1.987-1.237-3.228-1.237-2.978 0-5.21 2.232-5.21 5.21 0.018 2.87 2.34 5.192 5.208 5.21h0.002c1.241 0 2.482-0.492 3.228-0.991 0.25-0.246 0.745-0.246 0.745 0 0.246 0.246 0.246 0.745-0.25 0.991-1.097 0.776-2.463 1.241-3.937 1.241-0.011 0-0.022 0-0.034 0h0.002c-3.228-0.246-6.205-2.978-6.205-6.451zM504.308 198.050c0-3.473 2.728-6.451 6.201-6.451 3.228 0 5.96 2.478 6.205 5.956 0 0.246-0.246 0.496-0.741 0.496h-10.424c0.246 2.732 2.232 4.964 4.96 4.964 1.741 0 3.228-0.991 3.973-2.232 0.25-0.25 0.496-0.25 0.745-0.25 0.246 0.246 0.496 0.496 0.246 0.991-1.071 1.795-3.002 2.978-5.209 2.978 0 0 0 0-0.001 0v0c-3.341-0.285-5.945-3.062-5.956-6.45v-0.001zM505.549 197.059h9.679c-0.496-2.482-2.482-4.219-4.719-4.219-2.478 0-4.465 1.737-4.96 4.219z"></path>
<path fill="#24cca7" d="M400.814 221.131c1.241 0 2.232 0.991 2.232 2.232v1.241c2.978 0.246 5.71 1.241 7.942 2.732 0.745 0.492 1.491 1.241 1.491 2.478 0 1.491-1.241 2.732-2.978 2.732-0.496 0-0.995-0.246-1.491-0.496-1.737-0.991-3.473-1.987-5.46-2.232v9.925c7.942 1.987 11.17 5.214 11.17 10.674 0 5.706-4.465 9.429-11.17 10.174v3.228c0 0.002 0 0.005 0 0.008 0 1.228-0.996 2.224-2.224 2.224-0.003 0-0.006 0-0.009 0v0c-0.002 0-0.005 0-0.008 0-1.228 0-2.224-0.996-2.224-2.224 0-0.003 0-0.006 0-0.009v0-3.228c-3.973-0.496-7.447-1.737-10.674-3.973-0.89-0.462-1.487-1.376-1.487-2.43 0-0.019 0-0.037 0.001-0.055v0.003c0-1.487 1.241-2.728 2.728-2.728 0.745 0 1.241 0.246 1.737 0.496 2.482 1.737 4.714 2.978 7.696 3.473v-10.174c-7.696-1.982-11.17-4.714-11.17-10.67 0-5.46 4.465-9.433 10.92-9.929v-1.241c0.745-1.241 1.737-2.232 2.978-2.232zM398.582 238.752v-9.183c-3.228 0.246-4.964 1.987-4.964 4.465 0 2.236 0.991 3.478 4.964 4.719zM402.801 245.948v9.429c3.224-0.246 5.21-1.982 5.21-4.465 0-2.236-1.241-3.727-5.21-4.964zM443.748 248.431c0 6.701-5.46 12.411-12.407 12.411-0.037 0-0.080 0.001-0.124 0.001-6.786 0-12.288-5.502-12.288-12.288 0-0.043 0-0.087 0.001-0.13v0.007c0-4.219 2.236-8.192 5.46-10.424-0.991-1.491-1.737-3.228-1.737-5.214 0-4.71 3.723-8.438 8.688-8.438 4.714 0 8.438 3.727 8.438 8.438 0 1.987-0.745 3.727-1.737 5.214 3.45 2.194 5.706 5.997 5.706 10.327 0 0.034 0 0.068 0 0.103v-0.005zM438.043 248.431c0-0.007 0-0.016 0-0.025 0-3.687-2.989-6.676-6.676-6.676-0.009 0-0.017 0-0.026 0h0.001c-0.007 0-0.016 0-0.025 0-3.687 0-6.676 2.989-6.676 6.676 0 0.009 0 0.017 0 0.026v-0.001c0 0.007 0 0.016 0 0.025 0 3.687 2.989 6.676 6.676 6.676 0.009 0 0.017 0 0.026 0h-0.001c3.723 0 6.701-3.228 6.701-6.701zM428.364 232.792c0 1.491 1.241 2.982 2.978 2.982 1.487 0 2.728-1.241 2.728-2.978-0.011-1.503-1.225-2.718-2.727-2.732h-0.001c-1.737 0-2.978 1.241-2.978 2.728zM451.94 237.015c0.030-6.978 5.679-12.627 12.654-12.657h0.003c6.451 0 11.911 4.96 12.411 11.166v2.978c0 3.473-0.5 7.197-1.737 10.674-1.241 3.473-3.478 6.697-6.701 8.929-2.236 1.491-4.719 2.236-7.696 2.486-1.487 0-2.978-1.241-2.978-2.732 0-1.487 1.241-2.728 2.732-2.978 1.982 0 3.473-0.745 4.96-1.487 1.241-0.995 2.482-1.987 3.228-3.727 0.25-0.492 0.496-0.991 0.745-1.237-1.491 0.745-3.228 0.991-4.964 0.991-7.197 0-12.657-5.46-12.657-12.411zM457.65 237.015c0 3.719 2.978 6.947 6.947 6.947 3.723 0 6.701-3.228 6.701-6.947 0-0.007 0-0.016 0-0.025 0-3.687-2.989-6.676-6.676-6.676-0.009 0-0.017 0-0.026 0h0.001c-3.969-0.25-6.947 2.728-6.947 6.701zM485.196 265.306c2.482-0.745 3.723-2.482 3.473-4.714-1.487-0.496-2.978-1.737-2.978-3.473v-0.5c0-1.982 1.491-3.473 3.478-3.473 2.232 0 3.719 1.737 3.719 4.465v0.5c0 3.473-0.991 5.956-2.478 7.692-1.491 1.241-3.478 2.236-4.964 2.236-0.995 0-1.491-0.745-1.491-1.491 0-0.496 0.496-0.991 1.241-1.241zM496.611 237.015c0.030-6.978 5.679-12.627 12.654-12.657h0.003c6.455 0 11.915 4.96 12.411 11.166v2.978c0 3.473-0.496 7.197-1.737 10.674-1.241 3.473-3.473 6.697-6.701 8.929-2.232 1.491-4.714 2.236-7.692 2.486-1.491 0-2.982-1.241-2.982-2.732 0-1.487 1.241-2.728 2.732-2.978 1.987 0 3.473-0.745 4.964-1.487 1.241-0.995 2.482-1.987 3.224-3.727 0.25-0.492 0.5-0.991 0.745-1.237-1.487 0.745-3.224 0.991-4.964 0.991-6.947 0-12.657-5.46-12.657-12.411zM502.321 237.015c0 3.719 2.978 6.947 6.947 6.947 3.723 0 6.701-3.228 6.701-6.947 0-0.007 0-0.016 0-0.025 0-3.687-2.989-6.676-6.676-6.676-0.009 0-0.017 0-0.026 0h0.001c-3.969-0.25-6.947 2.728-6.947 6.701zM529.871 237.015c0.030-6.978 5.679-12.627 12.654-12.657h0.003c6.451 0 11.911 4.96 12.407 11.166v2.978c0 3.473-0.496 7.197-1.737 10.674-1.241 3.473-3.473 6.697-6.701 8.929-2.232 1.491-4.714 2.236-7.692 2.486-1.491 0-2.978-1.241-2.978-2.732 0-1.487 1.241-2.728 2.728-2.978 1.987 0 3.478-0.745 4.964-1.487 1.241-0.995 2.482-1.987 3.228-3.727 0.246-0.492 0.496-0.991 0.745-1.237-1.491 0.745-3.228 0.991-4.964 0.991-6.951 0-12.657-5.46-12.657-12.411zM535.577 237.015c0 3.719 2.978 6.947 6.951 6.947 3.723 0 6.701-3.228 6.701-6.947 0-0.007 0-0.016 0-0.025 0-3.687-2.989-6.676-6.676-6.676-0.009 0-0.017 0-0.026 0h0.001c-3.973-0.25-6.951 2.728-6.951 6.701z"></path>
<path fill="#263238" d="M473.78 117.637c0-0.246 0.25-0.741 0.745-0.741h4.964c2.87 0.018 5.192 2.34 5.21 5.208v0.002c-0.018 2.87-2.34 5.192-5.208 5.21h-4.471v7.201c0 0.246-0.25 0.741-0.745 0.741-0.246 0-0.745-0.246-0.745-0.741v-16.876h0.25zM479.49 126.325c0.015 0 0.032 0 0.050 0 2.165 0 3.92-1.755 3.92-3.92 0-0.019 0-0.038 0-0.056v0.003c0-0.015 0-0.032 0-0.049 0-2.165-1.755-3.92-3.92-3.92-0.017 0-0.035 0-0.052 0h-4.466v7.942h4.469zM499.094 123.097v11.42c0 0.246-0.246 0.741-0.741 0.741-0.25 0-0.745-0.246-0.745-0.741v-1.987c-1.031 1.507-2.741 2.482-4.68 2.482-0.012 0-0.024 0-0.037 0h0.002c-3.228 0-5.96-2.978-5.96-6.455 0-3.473 2.732-6.451 5.96-6.451 1.982 0 3.719 0.991 4.714 2.482v-1.987c0-0.246 0.246-0.741 0.745-0.741 0.496 0.741 0.741 0.991 0.741 1.237zM497.852 128.807c0-2.728-2.232-5.21-4.714-5.21s-4.714 2.232-4.714 5.21c0 2.732 2.232 5.21 4.714 5.21 2.732 0 4.714-2.232 4.714-5.21zM504.308 123.097c0-0.246 0.246-0.492 0.496-0.492 0.246 0 0.745 0.246 0.745 0.492v6.951c0 2.232 1.737 3.973 3.969 3.973s3.973-1.741 3.973-3.973v-7.197l0.246-0.246s0.25 0 0.25 0.246l0.246 0.246v11.42c0 3.224-2.728 5.956-5.956 5.956-0.991 0-1.737-0.246-2.728-0.5-0.25-0.246-0.5-0.492-0.25-0.741 0.25-0.246 0.496-0.496 0.745-0.246 0.745 0.246 1.241 0.492 1.987 0.492 2.728 0 4.714-1.982 4.714-4.71v-0.75c-0.995 0.995-2.236 1.741-3.973 1.741-2.871-0.018-5.194-2.342-5.21-5.213v-7.449h0.745zM538.804 127.812c0-0.015 0-0.032 0-0.050 0-2.165-1.755-3.92-3.92-3.92-0.019 0-0.038 0-0.056 0h0.003c-0.015 0-0.032 0-0.050 0-2.165 0-3.92 1.755-3.92 3.92 0 0.019 0 0.038 0 0.056v-0.003 6.943c0 0.246-0.25 0.246-0.25 0.246h-0.496v-6.947c0-0.016 0-0.035 0-0.054 0-2.165-1.755-3.92-3.92-3.92-0.017 0-0.035 0-0.052 0h0.003c-0.016 0-0.035 0-0.054 0-2.165 0-3.92 1.755-3.92 3.92 0 0.019 0 0.038 0 0.056v-0.003 6.951c0 0.246 0 0.492-0.246 0.492h-0.25c-0.246 0-0.496-0.246-0.496-0.492v-11.907c0-0.25 0.25-0.5 0.496-0.5 0.25 0 0.745 0.246 0.745 0.496v1.241c0.991-0.991 2.232-1.737 3.969-1.737 1.987 0 3.723 0.991 4.469 2.732 0.991-1.491 2.732-2.732 4.469-2.732 2.871 0.018 5.194 2.342 5.21 5.213v6.945c0 0.246-0.25 0.496-0.745 0.496-0.246 0-0.496-0.246-0.496-0.492v-6.955h-0.496zM544.264 128.807c0-3.473 2.728-6.451 6.205-6.451 3.224 0 5.956 2.478 6.205 5.956 0 0.246-0.25 0.496-0.745 0.496h-10.424c0.246 2.732 2.232 4.964 4.964 4.964 1.737 0 3.224-0.995 3.969-2.232 0.25-0.25 0.496-0.25 0.745-0.25 0.25 0.246 0.496 0.496 0.25 0.991-1.073 1.794-3.005 2.977-5.214 2.978v0c-3.228 0-5.956-2.978-5.956-6.451zM545.751 127.816h9.683c-0.5-2.482-2.482-4.219-4.719-4.219-2.482 0.246-4.465 1.982-4.964 4.219zM570.073 127.812c0-0.015 0-0.032 0-0.049 0-2.165-1.755-3.92-3.92-3.92-0.017 0-0.035 0-0.052 0h0.003c-0.015 0-0.032 0-0.050 0-2.165 0-3.92 1.755-3.92 3.92 0 0.019 0 0.038 0 0.056v-0.003 6.943s0 0.246-0.25 0.246c0 0.25-0.25 0.25-0.496 0.25h-0.25c-0.246 0-0.246-0.246-0.496-0.246v-11.665c0-0.246 0.25-0.745 0.745-0.745 0.246 0 0.496 0.246 0.496 0.745v1.241c0.991-0.995 2.232-1.737 3.969-1.737 2.872 0.016 5.196 2.339 5.214 5.208v6.953c0 0.246-0.25 0.741-0.745 0.741-0.25 0-0.496-0.246-0.496-0.741v-7.201h0.246zM581.493 123.097c0 0.246-0.25 0.745-0.745 0.745h-1.737v9.183c0 0.745 0.745 0.991 0.991 0.991 0.25 0 0.745 0.246 0.745 0.745 0 0.246-0.25 0.745-0.745 0.745-0.002 0-0.005 0-0.008 0-1.228 0-2.224-0.996-2.224-2.224 0-0.003 0-0.006 0-0.009v0-9.183h-1.491c-0.496 0-0.496-0.246-0.496-0.745 0-0.246 0-0.745 0.496-0.745h1.491v-4.714c0-0.246 0.246-0.745 0.496-0.745s0.745 0.246 0.745 0.745v4.714h1.737c0.25 0 0.745 0.246 0.745 0.496zM596.136 135.258c-0.5 0-0.745-0.246-0.745-0.741v-16.876c0-0.25 0.246-0.745 0.745-0.745h3.224c4.964 0 9.183 3.969 9.183 9.179 0 4.964-3.969 8.937-9.183 8.937h-3.224v0.246zM599.359 134.017c4.219 0 7.696-3.473 7.696-7.692s-3.478-7.692-7.696-7.942h-2.728v15.634h2.728zM621.945 123.097v11.42c0 0.246-0.246 0.741-0.496 0.741s-0.745-0.246-0.745-0.741v-1.987c-1.028 1.506-2.737 2.482-4.673 2.482-0.014 0-0.029 0-0.043 0h0.002c-3.228 0-5.956-2.978-5.956-6.455 0-3.473 2.728-6.451 5.956-6.451 1.987 0 3.723 0.991 4.714 2.482v-1.987c0-0.246 0.25-0.741 0.745-0.741 0.25 0.741 0.496 0.991 0.496 1.237zM620.704 128.807c0-2.728-2.232-5.21-4.714-5.21s-4.714 2.232-4.714 5.21c0 2.732 2.232 5.21 4.714 5.21 2.728 0 4.714-2.232 4.714-5.21zM631.874 123.097c0 0.246-0.25 0.745-0.745 0.745h-1.737v9.183c0 0.745 0.745 0.991 0.991 0.991 0.25 0 0.745 0.246 0.745 0.745 0 0.246-0.25 0.745-0.745 0.745-0.002 0-0.005 0-0.008 0-1.228 0-2.224-0.996-2.224-2.224 0-0.003 0-0.006 0-0.009v0-9.183h-1.491c-0.496 0-0.496-0.246-0.496-0.745 0-0.246 0-0.745 0.496-0.745h1.491v-4.714c0-0.246 0.246-0.745 0.496-0.745s0.745 0.246 0.745 0.745v4.714h1.737c0.496 0 0.745 0.246 0.745 0.496zM647.754 123.097v11.42c0 0.246-0.246 0.741-0.741 0.741-0.25 0-0.496-0.246-0.496-0.741v-1.987c-1.031 1.507-2.741 2.482-4.68 2.482-0.014 0-0.027 0-0.041 0h0.002c-3.224 0-5.956-2.978-5.956-6.455 0-3.473 2.732-6.451 5.956-6.451 1.987 0 3.723 0.991 4.719 2.482v-1.987c0-0.246 0.246-0.741 0.496-0.741 0.496 0.741 0.741 0.991 0.741 1.237zM646.517 128.807c0-2.728-2.236-5.21-4.719-5.21s-4.714 2.232-4.714 5.21c0 2.732 2.232 5.21 4.714 5.21s4.719-2.232 4.719-5.21z"></path>
<path fill="#4a56e2" d="M397.341 133.521l-8.684-7.942 8.684-7.942 1.737 1.737-6.451 6.205 6.451 6.205-1.737 1.737z"></path>
<path fill="#4a56e2" d="M395.85 139.477c-0.006 0-0.013 0-0.020 0-7.664 0-13.877-6.213-13.877-13.877 0-0.007 0-0.014 0-0.022v0.001c0-0.006 0-0.013 0-0.020 0-7.664 6.213-13.877 13.877-13.877 0.007 0 0.014 0 0.022 0h-0.001c0.007 0 0.016 0 0.025 0 7.662 0 13.873 6.211 13.873 13.873 0 0.009 0 0.017 0 0.026v-0.001c0 0.007 0 0.016 0 0.025 0 7.662-6.211 13.873-13.873 13.873-0.009 0-0.017 0-0.026 0h0.001zM395.85 114.164c-0.009 0-0.019 0-0.029 0-6.289 0-11.387 5.098-11.387 11.387 0 0.010 0 0.020 0 0.030v-0.002c0 0.009 0 0.019 0 0.029 0 6.289 5.098 11.387 11.387 11.387 0.010 0 0.020 0 0.030 0h-0.002c0.009 0 0.019 0 0.029 0 6.289 0 11.387-5.098 11.387-11.387 0-0.010 0-0.020 0-0.030v0.002c0-6.205-5.21-11.416-11.416-11.416z"></path>
<path fill="#ffc727" d="M726.18 611.77c15.489 0 28.045-12.556 28.045-28.045s-12.556-28.045-28.045-28.045v0c-15.489 0-28.045 12.556-28.045 28.045s12.556 28.045 28.045 28.045v0z"></path>
<path fill="#fff" d="M717.992 601.592l-10.424-16.13 4.469-2.978 6.451 10.424 20.599-25.813 3.973 3.228-25.068 31.269z"></path>
<path fill="#4a56e2" d="M569.082 613.011c0 4.465-3.723 8.188-8.192 8.188-4.505-0.041-8.147-3.683-8.188-8.184v-0.004c0-4.469 3.723-8.192 8.188-8.192 4.469 0 8.192 3.723 8.192 8.192z"></path>
<path fill="#ebebeb" d="M522.92 613.011c0 3.224-2.732 5.956-5.956 5.956-3.271-0.045-5.91-2.685-5.956-5.951v-0.004c0-3.228 2.728-5.956 5.956-5.956 3.224 0 5.956 2.728 5.956 5.956zM611.025 613.011c0 3.224-2.732 5.956-5.956 5.956-3.272-0.045-5.912-2.684-5.96-5.951v-0.005c0-3.228 2.732-5.956 5.96-5.956 3.224 0 5.956 2.728 5.956 5.956z"></path>
<path fill="#263238" d="M385.18 670.589c0.246-0.25 0.496-0.25 0.745 0 1.241 0.991 3.723 2.482 5.956 2.232 1.487 0 2.978-0.496 3.973-1.241 0.991-0.741 1.487-1.737 1.487-2.728s-0.496-1.737-1.491-2.482c-0.991-0.745-2.482-1.241-4.219-1.491-1.737-0.246-3.224-0.741-4.219-1.487-0.991-0.745-1.987-1.737-1.987-3.228 0-1.487 0.745-2.482 1.987-3.473 1.265-0.779 2.799-1.241 4.44-1.241 0.009 0 0.018 0 0.026 0h-0.001c2.486 0 4.219 1.241 5.71 1.987 0.25 0.246 0.25 0.496 0.25 0.741-0.246 0.25-0.496 0.25-0.745 0.25-1.487-0.991-2.978-1.987-4.964-1.987-1.487 0-2.728 0.5-3.719 0.995-0.995 0.741-1.491 1.487-1.491 2.482 0 0.991 0.496 1.487 1.241 2.232 0.991 0.745 2.232 0.991 3.973 1.487 1.737 0.25 3.473 0.745 4.71 1.741 1.196 0.695 1.987 1.97 1.987 3.429 0 0.016 0 0.031 0 0.047v-0.002c0 1.487-0.741 2.728-1.982 3.723-1.241 0.991-2.732 1.487-4.719 1.487-2.728 0-5.21-1.487-6.701-2.728-0.492 0-0.492-0.496-0.246-0.745zM413.721 662.151v11.416c0 0.25-0.25 0.745-0.745 0.745-0.25 0-0.745-0.25-0.745-0.745v-1.987c-1.028 1.506-2.737 2.482-4.673 2.482-0.013 0-0.026 0-0.039 0h0.002c-3.232 0-5.96-2.978-5.96-6.451s2.728-6.451 5.956-6.451c1.987 0 3.723 0.991 4.714 2.478v-1.982c0-0.25 0.25-0.745 0.745-0.745 0.25 0.496 0.745 0.745 0.745 1.241zM412.479 667.861c0-2.732-2.232-5.214-4.714-5.214s-4.719 2.232-4.719 5.214c0 2.728 2.236 5.21 4.719 5.21 2.482-0.25 4.714-2.482 4.714-5.21zM422.654 674.062l-0.246-0.246-4.719-11.416c-0.246-0.25 0-0.745 0.25-0.745 0.246-0.25 0.745 0 0.745 0.246l4.219 9.929 4.219-9.929c0-0.246 0.496-0.496 0.745-0.246 0.246 0.246 0.496 0.496 0.246 0.745l-4.714 11.166s0 0.25-0.25 0.25c0 0.246-0.246 0.246-0.496 0.246 0.25 0 0.25 0 0 0zM431.837 667.857c0-3.473 2.728-6.451 6.205-6.451 3.224 0 5.956 2.482 6.205 5.956 0 0.25-0.25 0.496-0.745 0.496h-10.424c0.25 2.732 2.232 4.964 4.964 4.964 1.737 0 3.224-0.991 3.969-2.232 0.25-0.25 0.496-0.25 0.745-0.25 0.25 0.25 0.496 0.5 0.25 0.995-1.074 1.794-3.006 2.976-5.214 2.978v0c-3.342-0.285-5.948-3.065-5.956-6.454v-0.001zM433.328 666.866h9.679c-0.5-2.482-2.482-4.219-4.719-4.219-2.728 0-4.714 1.737-4.96 4.219zM455.414 667.611c0-3.473 2.978-6.205 6.455-6.205 1.487 0 2.978 0.496 3.969 1.491 0.25 0.246 0.25 0.496 0 0.741-0.25 0.25-0.496 0.25-0.745 0-0.991-0.741-1.982-1.241-3.224-1.241-2.982 0-5.214 2.236-5.214 5.214 0.018 2.871 2.342 5.194 5.213 5.21h0.002c1.241 0 2.478-0.496 3.224-0.991 0.25-0.25 0.745-0.25 0.745 0 0.25 0.25 0.25 0.745-0.25 0.991-1.095 0.776-2.459 1.241-3.931 1.241-0.013 0-0.027 0-0.040 0h0.002c-3.228 0-6.205-2.728-6.205-6.451zM481.722 662.151v11.416c0 0.25-0.25 0.745-0.745 0.745-0.246 0-0.745-0.25-0.745-0.745v-1.987c-1.028 1.506-2.737 2.482-4.673 2.482-0.014 0-0.029 0-0.043 0h0.002c-3.228 0-5.956-2.978-5.956-6.451s2.728-6.451 5.956-6.451c1.987 0 3.723 0.991 4.714 2.478v-1.982c0-0.25 0.25-0.745 0.745-0.745 0.496 0.496 0.745 0.745 0.745 1.241zM480.481 667.861c0-2.732-2.232-5.214-4.714-5.214s-4.719 2.232-4.719 5.214c0 2.728 2.236 5.21 4.719 5.21 2.652-0.235 4.715-2.445 4.715-5.138 0-0.025 0-0.051-0.001-0.076v0.004zM487.182 662.151c0-0.25 0.25-0.745 0.745-0.745 0.246 0 0.496 0.25 0.496 0.745v2.728s0-0.246 0.246-0.246c0.995-1.491 2.732-3.228 4.964-3.228 0.25 0 0.745 0.25 0.745 0.745 0 0.246-0.25 0.496-0.745 0.496-1.737 0-2.728 0.991-3.723 1.987-0.741 1.241-1.241 2.482-1.487 2.978v5.706c0 0.25-0.25 0.745-0.496 0.745-0.25 0-0.745-0.246-0.745-0.745v-11.166zM508.031 671.58c-0.995 1.491-2.982 2.482-4.964 2.482-0.018 0-0.040 0-0.062 0-3.393 0-6.144-2.751-6.144-6.144 0-0.022 0-0.043 0-0.065v0.003c0-3.473 2.728-6.451 6.205-6.451 1.982 0 3.723 0.991 4.964 2.482v-7.197c0-0.25 0.246-0.496 0.741-0.496 0.25 0 0.745 0.246 0.745 0.496v16.876c0 0.25-0.246 0.745-0.745 0.745-0.246 0-0.741-0.25-0.741-0.745v-1.987zM508.031 668.107v-0.496c0-2.732-2.236-4.964-4.964-4.964-2.732 0-4.964 2.232-4.964 5.21 0 2.732 2.232 4.964 4.964 4.964 2.728 0 4.964-2.232 4.964-4.714zM531.853 666.62c0-0.016 0-0.035 0-0.054 0-2.165-1.755-3.92-3.92-3.92-0.017 0-0.035 0-0.052 0h0.003c-0.015 0-0.032 0-0.049 0-2.167 0-3.924 1.757-3.924 3.924 0 0.017 0 0.035 0 0.052v-0.003 6.947s0 0.25-0.246 0.25c0 0.246-0.25 0.246-0.496 0.246h-0.25c-0.246 0-0.246-0.246-0.496-0.246v-11.665c0-0.25 0.25-0.745 0.745-0.745 0.246 0 0.496 0.25 0.496 0.745v1.241c0.991-0.995 2.232-1.737 3.969-1.737 2.872 0.016 5.196 2.339 5.214 5.208v6.953c0 0.246-0.25 0.741-0.745 0.741-0.25 0-0.745-0.246-0.745-0.741v-7.197h0.496zM538.554 661.901c0-0.246 0.25-0.496 0.745-0.496 0.25 0 0.745 0.25 0.745 0.496v6.951c0 2.232 1.737 3.969 3.969 3.969 2.236 0 3.973-1.737 3.973-3.969v-6.951c0-0.246 0.246-0.496 0.745-0.496 0.246 0 0.741 0.25 0.741 0.496v6.951c-0.018 2.87-2.34 5.192-5.208 5.21h-0.002c-2.872-0.016-5.196-2.339-5.214-5.208v-6.953h-0.496zM572.805 666.62c0-0.016 0-0.035 0-0.054 0-2.165-1.755-3.92-3.92-3.92-0.019 0-0.038 0-0.056 0h0.003c-0.015 0-0.032 0-0.050 0-2.165 0-3.92 1.755-3.92 3.92 0 0.019 0 0.038 0 0.056v-0.003 6.947c0 0.25-0.25 0.25-0.25 0.25h-0.496v-6.951c0-0.015 0-0.032 0-0.049 0-2.165-1.755-3.92-3.92-3.92-0.017 0-0.035 0-0.052 0h0.003c-0.016 0-0.035 0-0.054 0-2.165 0-3.92 1.755-3.92 3.92 0 0.017 0 0.035 0 0.052v-0.003 6.951c0 0.246 0 0.496-0.246 0.496h-0.25c-0.246 0-0.496-0.25-0.496-0.496v-11.915c0-0.246 0.25-0.496 0.496-0.496 0.25 0 0.745 0.25 0.745 0.496v1.241c0.991-0.991 2.232-1.737 3.969-1.737 1.987 0 3.723 0.991 4.469 2.732 0.991-1.491 2.732-2.732 4.469-2.732 2.871 0.018 5.194 2.342 5.21 5.213v6.949c0 0.25-0.246 0.496-0.745 0.496-0.246 0-0.496-0.246-0.496-0.496v-6.947h-0.496zM579.256 668.107v-11.416c0-0.25 0.25-0.496 0.496-0.496 0.25 0 0.745 0.246 0.745 0.496v7.197c0.995-1.491 2.978-2.482 4.964-2.482 3.473 0 6.205 2.732 6.205 6.451 0 0.018 0 0.040 0 0.062 0 3.393-2.751 6.144-6.144 6.144-0.022 0-0.043 0-0.065 0h0.003c-1.987 0-3.723-0.991-4.964-2.482v1.737c0 0.25-0.246 0.745-0.745 0.745-0.246 0-0.496-0.246-0.496-0.745v-5.21zM580.497 667.857c0 2.732 2.236 4.964 4.964 4.964 2.732 0 4.964-2.232 4.964-4.964 0-2.728-2.232-5.21-4.964-5.21-2.728 0-4.714 2.232-4.964 5.21zM595.39 667.857c0-3.473 2.728-6.451 6.205-6.451 3.224 0 5.956 2.482 6.201 5.956 0 0.25-0.246 0.496-0.741 0.496h-10.424c0.246 2.732 2.232 4.964 4.964 4.964 1.737 0 3.224-0.991 3.969-2.232 0.25-0.25 0.496-0.25 0.745-0.25 0.246 0.25 0.496 0.5 0.246 0.995-1.071 1.795-3.002 2.978-5.209 2.978 0 0 0 0-0.001 0v0c-3.342-0.285-5.948-3.065-5.956-6.454v-0.001zM596.877 666.866h9.679c-0.496-2.482-2.482-4.219-4.714-4.219-2.482 0-4.469 1.737-4.964 4.219zM611.521 662.151c0-0.25 0.25-0.745 0.745-0.745 0.25 0 0.496 0.25 0.496 0.745v2.728s0-0.246 0.25-0.246c0.991-1.491 2.728-3.228 4.964-3.228 0.246 0 0.496 0.25 0.496 0.745 0 0.246-0.25 0.496-0.496 0.496-1.741 0-2.732 0.991-3.723 1.987-0.745 1.241-1.241 2.482-1.491 2.978v5.706c0 0.25-0.246 0.745-0.496 0.745s-0.745-0.246-0.745-0.745v-11.166z"></path>
<path fill="#4a56e2" opacity="0.5" d="M720.72 678.777h-34.742c-6.951 0-12.906-5.706-12.906-12.902v-1.241c0-6.951 5.706-12.906 12.906-12.906h34.742c6.951 0 12.906 5.71 12.906 12.906v1.241c-0.246 7.197-5.956 12.902-12.906 12.902z"></path>
<path fill="#4a56e2" d="M731.144 665.379c0 0.009 0 0.019 0 0.029 0 6.289-5.098 11.387-11.387 11.387-0.010 0-0.020 0-0.030 0h0.002c-0.009 0-0.019 0-0.029 0-6.289 0-11.387-5.098-11.387-11.387 0-0.010 0-0.020 0-0.030v0.002c0-0.010 0-0.021 0-0.033 0-6.289 5.098-11.387 11.387-11.387 0.010 0 0.020 0 0.030 0h-0.002c0.009 0 0.019 0 0.029 0 6.289 0 11.387 5.098 11.387 11.387 0 0.012 0 0.023 0 0.035v-0.002z"></path>
<path fill="#24cca7" d="M681.751 741.319h-241.717c-13.573 0-24.576 11.003-24.576 24.576v0 6.689c0 13.573 11.003 24.576 24.576 24.576v0h241.717c13.573 0 24.576-11.003 24.576-24.576v0-6.689c0-13.573-11.003-24.576-24.576-24.576v0z"></path>
<path fill="#fff" d="M440.525 758.694c0-0.25 0.246-0.745 0.741-0.745h4.964c2.872 0.016 5.196 2.339 5.214 5.208v0.002c0 2.978-2.236 5.214-5.214 5.214h-4.465v7.197c0 0.246-0.25 0.496-0.745 0.496-0.25 0-0.745-0.25-0.745-0.496v-16.876h0.25zM446.231 767.132c2.236 0 3.973-1.737 3.973-3.973 0-0.015 0-0.032 0-0.050 0-2.165-1.755-3.92-3.92-3.92-0.019 0-0.038 0-0.056 0h-4.462v7.942h4.465zM455.414 764.154c0-0.25 0.25-0.496 0.745-0.496 0.246 0 0.496 0.246 0.496 0.496v2.728s0-0.246 0.25-0.246c0.991-1.491 2.728-3.228 4.96-3.228 0.25 0 0.745 0.246 0.745 0.496s-0.246 0.745-0.745 0.745c-1.737 0-2.728 0.991-3.719 1.987-0.745 1.241-1.241 2.482-1.491 2.978v5.706c0 0.25-0.25 0.496-0.496 0.496-0.25 0-0.745-0.246-0.745-0.496v-11.166zM471.548 763.408c3.224 0 5.956 2.978 5.956 6.451 0 3.478-2.732 6.455-5.956 6.455-3.228 0-5.96-2.978-5.96-6.455-0.011-0.134-0.017-0.289-0.017-0.447 0-3.306 2.672-5.989 5.975-6.005h0.002zM471.548 774.824c2.478 0 4.714-2.232 4.714-5.21 0-2.732-2.236-5.214-4.714-5.214-2.482 0-4.719 2.236-4.719 5.214s1.987 5.21 4.719 5.21zM481.473 769.86c0-3.473 2.978-6.205 6.455-6.205 1.487 0 2.978 0.5 3.969 1.491 0.25 0.25 0.25 0.496 0 0.745-0.25 0.246-0.496 0.246-0.745 0-0.991-0.745-1.987-1.241-3.224-1.241-2.982 0-5.214 2.232-5.214 5.21 0.016 2.873 2.341 5.198 5.213 5.214h0.002c1.237 0 2.478-0.5 3.224-0.995 0.25-0.246 0.745-0.246 0.745 0 0.25 0.25 0.25 0.745-0.25 0.995-1.099 0.776-2.467 1.241-3.943 1.241-0.009 0-0.018 0-0.027 0h0.001c-3.473-0.25-6.205-2.978-6.205-6.455zM495.87 769.86c0-3.473 2.728-6.451 6.201-6.451 3.228 0 5.96 2.482 6.205 5.956 0 0.25-0.246 0.496-0.745 0.496h-10.424c0.25 2.732 2.236 4.964 4.964 4.964 1.737 0 3.228-0.991 3.973-2.232 0.246-0.25 0.496-0.25 0.745-0.25 0.246 0.25 0.496 0.496 0.246 0.995-1.071 1.795-3.002 2.978-5.209 2.978 0 0 0 0-0.001 0v0c-3.342-0.285-5.948-3.065-5.956-6.454v-0.001zM497.107 768.868h9.683c-0.5-2.482-2.482-4.219-4.719-4.219-2.482 0-4.465 1.737-4.964 4.219zM511.504 769.86c0-3.473 2.728-6.451 6.205-6.451 3.224 0 5.956 2.482 6.201 5.956 0 0.25-0.246 0.496-0.741 0.496h-10.424c0.246 2.732 2.232 4.964 4.964 4.964 1.737 0 3.224-0.991 3.969-2.232 0.25-0.25 0.496-0.25 0.745-0.25 0.246 0.25 0.496 0.496 0.246 0.995-1.071 1.795-3.002 2.978-5.209 2.978 0 0 0 0-0.001 0v0c-3.342-0.285-5.948-3.065-5.956-6.454v-0.001zM512.991 768.868h9.679c-0.496-2.482-2.482-4.219-4.714-4.219-2.728 0-4.714 1.737-4.964 4.219zM538.309 773.583c-0.995 1.491-2.982 2.482-4.964 2.482-0.018 0-0.040 0-0.062 0-3.393 0-6.144-2.751-6.144-6.144 0-0.022 0-0.043 0-0.065v0.003c0-3.473 2.728-6.451 6.205-6.451 1.982 0 3.723 0.991 4.964 2.482v-7.197c0-0.25 0.246-0.745 0.741-0.745 0.25 0 0.745 0.25 0.745 0.745v16.876c0 0.246-0.25 0.496-0.745 0.496-0.246 0-0.741-0.25-0.741-0.496v-1.987zM538.309 770.109v-0.496c0-2.732-2.236-4.964-4.964-4.964-2.732 0-4.964 2.232-4.964 5.21 0 2.732 2.232 4.964 4.964 4.964 2.728 0 4.964-2.232 4.964-4.714zM557.666 764.154c0 0.246-0.25 0.741-0.745 0.741h-1.737v9.183c0 0.745 0.745 0.995 0.991 0.995 0.25 0 0.745 0.246 0.745 0.741 0 0.25-0.25 0.5-0.745 0.5-0.002 0-0.005 0-0.008 0-1.228 0-2.224-0.996-2.224-2.224 0-0.004 0-0.009 0-0.013v0.001-9.183h-1.491c-0.741 0-0.741-0.246-0.741-0.741 0-0.25 0-0.745 0.741-0.745h1.491v-4.714c0-0.25 0.246-0.745 0.745-0.745 0.246 0 0.741 0.25 0.741 0.745v4.714h1.741s0.496 0.246 0.496 0.745zM568.586 763.408c3.224 0 5.956 2.978 5.956 6.451 0 3.478-2.732 6.455-5.956 6.455-3.228 0-5.96-2.978-5.96-6.455 0-3.473 2.482-6.451 5.96-6.451zM568.586 774.824c2.482 0 4.714-2.232 4.714-5.21 0-2.732-2.232-5.214-4.714-5.214s-4.719 2.236-4.719 5.214c0 2.978 1.987 5.21 4.719 5.21zM586.207 769.86c0-3.473 2.978-6.205 6.451-6.205 1.491 0 2.978 0.5 3.973 1.491 0.246 0.25 0.246 0.496 0 0.745-0.25 0.246-0.5 0.246-0.745 0-0.995-0.745-1.987-1.241-3.228-1.241-2.978 0-5.21 2.232-5.21 5.21 0.016 2.872 2.339 5.196 5.208 5.214h0.002c1.241 0 2.482-0.5 3.228-0.995 0.246-0.246 0.745-0.246 0.745 0 0.246 0.25 0.246 0.745-0.25 0.995-1.1 0.777-2.468 1.241-3.945 1.241-0.010 0-0.020 0-0.030 0h0.002c-3.224-0.25-6.201-2.978-6.201-6.455zM606.806 763.408c3.228 0 5.956 2.978 5.956 6.451 0 3.478-2.728 6.455-5.956 6.455s-5.956-2.978-5.956-6.455c0-3.473 2.728-6.451 5.956-6.451zM606.806 774.824c2.482 0 4.714-2.232 4.714-5.21 0-2.732-2.232-5.214-4.714-5.214s-4.714 2.236-4.714 5.214c0 2.978 2.232 5.21 4.714 5.21zM626.659 768.618c0-0.015 0-0.032 0-0.049 0-2.165-1.755-3.92-3.92-3.92-0.017 0-0.035 0-0.052 0h0.003c-0.016 0-0.035 0-0.054 0-2.165 0-3.92 1.755-3.92 3.92 0 0.017 0 0.035 0 0.052v-0.003 6.951s0 0.246-0.246 0.246c0 0.25-0.25 0.25-0.5 0.25h-0.246c-0.25 0-0.25-0.25-0.496-0.25v-11.661c0-0.25 0.246-0.5 0.496-0.5 0.246 0 0.496 0.25 0.496 0.5v1.241c0.991-0.995 2.232-1.741 3.969-1.741 2.873 0.016 5.198 2.341 5.214 5.213v6.949c0 0.25-0.25 0.5-0.745 0.5-0.246 0-0.496-0.25-0.496-0.5v-7.197h0.496zM639.070 758.694c0 0.246-0.25 0.741-0.496 0.741-0.995 0-1.241 0.25-1.491 0.5-0.25 0.246-0.496 0.991-0.496 1.982v1.241h1.737c0.25 0 0.745 0.25 0.745 0.5 0 0.246-0.25 0.741-0.745 0.741h-1.737v10.92c0 0.25-0.25 0.496-0.745 0.496-0.25 0-0.745-0.246-0.745-0.496v-10.92h-1.737c-0.246 0-0.745-0.246-0.745-0.741 0-0.25 0.25-0.5 0.745-0.5h1.737v-1.241c0-1.241 0.25-2.232 0.745-2.978s1.491-0.991 2.482-0.991c0.496 0 0.745 0.25 0.745 0.745zM643.039 759.935c0-0.25 0.25-0.745 0.745-0.745 0.25 0 0.745 0.246 0.745 0.745v0.496c0 0.246-0.25 0.745-0.745 0.745-0.25 0-0.745-0.25-0.745-0.745v-0.496zM643.039 764.154c0-0.25 0.25-0.745 0.745-0.745 0.25 0 0.745 0.25 0.745 0.745v11.416c0 0.25-0.25 0.496-0.745 0.496-0.25 0-0.745-0.246-0.745-0.496v-11.416zM650.236 764.154c0-0.25 0.25-0.496 0.745-0.496 0.266 0.018 0.477 0.23 0.496 0.494v2.73s0-0.246 0.25-0.246c0.991-1.491 2.728-3.228 4.964-3.228 0.246 0 0.496 0.246 0.496 0.496s-0.25 0.745-0.496 0.745c-1.737 0-2.732 0.991-3.723 1.987-0.745 1.241-1.241 2.482-1.491 2.978v5.706c-0.018 0.266-0.23 0.477-0.494 0.496h-0.002c-0.25 0-0.745-0.246-0.745-0.496v-11.166zM679.772 768.618c0-0.015 0-0.032 0-0.050 0-2.165-1.755-3.92-3.92-3.92-0.019 0-0.038 0-0.056 0h0.003c-0.015 0-0.032 0-0.049 0-2.165 0-3.92 1.755-3.92 3.92 0 0.017 0 0.035 0 0.052v-0.003 6.951c0 0.246-0.25 0.246-0.25 0.246h-0.496v-6.947c0-0.015 0-0.032 0-0.049 0-2.167-1.757-3.924-3.924-3.924-0.016 0-0.032 0-0.048 0h0.002c-0.015 0-0.032 0-0.049 0-2.167 0-3.924 1.757-3.924 3.924 0 0.017 0 0.035 0 0.052v-0.003 6.947c0 0.25 0 0.5-0.25 0.5h-0.246c-0.25 0-0.496-0.25-0.496-0.5v-11.911c0.018-0.266 0.23-0.477 0.494-0.496h0.002c0.246 0 0.745 0.246 0.745 0.496v1.241c0.991-0.991 2.232-1.737 3.969-1.737 1.987 0 3.723 0.991 4.469 2.728 0.991-1.487 2.728-2.728 4.465-2.728 2.872 0.016 5.196 2.339 5.214 5.208v6.953c0 0.246-0.25 0.496-0.745 0.496-0.25 0-0.496-0.25-0.496-0.496v-6.951h-0.496z"></path>
<path fill="#f7a9a0" d="M716.255 945.824c5.956 0.991 166.527-22.090 171.987-26.804 2.236-1.737 0.25-25.313-3.224-53.854v-0.995c-0.745-5.956-21.098-102.994-21.098-102.994l-107.463 15.139 24.822 101.507 0.246 1.737s-57.577 36.233-63.037 42.189c-5.46 6.205-8.192 23.081-2.232 24.076z"></path>
<path fill="#ffc727" d="M888.242 919.020c-5.46 4.714-166.031 28.045-171.987 26.804-5.96-0.995-3.228-17.871 2.232-23.826s63.037-42.193 63.037-42.193l-0.246-1.737-2.732-11.661 103.989-15.639c0.745 4.219 2.482 12.657 2.482 13.652v0.991c3.473 28.295 5.46 51.872 3.224 53.608z"></path>
<path fill="#a6a6a6" d="M716.255 945.824c2.978 0.496 46.658-5.214 89.346-11.665 8.684-1.241 17.121-2.728 25.313-3.969 30.278-4.719 55.345-9.433 57.577-11.17s0.25-24.818-2.978-52.613c0-0.5 0-0.745-0.25-1.241v-0.995l-103.739 13.652 0.25 1.737s-57.577 36.233-63.037 42.189c-5.71 6.205-8.442 23.081-2.482 24.076z"></path>
<path fill="#263238" d="M717.246 939.373c27.050-4.469 136.253-20.353 163.303-22.835 0.25 0 0.25 0.25 0 0.25-26.554 5.21-136.004 20.103-163.054 23.081-0.745 0-0.995-0.25-0.25-0.496zM769.86 880.054c10.424-3.473 23.581-3.723 32.76 2.732 0.25 0.246 0 0.741-0.246 0.741-10.92-1.737-21.094-2.482-32.264-1.982-0.991 0-0.991-1.241-0.25-1.491zM762.663 885.764c10.424-3.478 23.577-3.723 32.76 2.728 0.25 0.25 0 0.745-0.246 0.745-10.92-1.737-21.098-2.482-32.264-1.987-0.745 0-0.995-1.241-0.25-1.487zM755.716 891.72c10.424-3.473 23.577-3.723 32.76 2.732 0.246 0.246 0 0.741-0.25 0.741-10.92-1.737-21.094-2.482-32.264-1.982-0.741-0.25-0.991-1.241-0.246-1.491z"></path>
<path fill="#37474f" d="M765.891 860.201l120.865-16.63s-30.032-205.992-29.037-210.706c1.241-6.205 71.971-295.088 71.971-295.088h-99.025s-81.404 268.038-84.627 293.847c-5.46 41.693 19.853 228.577 19.853 228.577z"></path>
<path fill="#263238" d="M771.351 835.629c20.599-4.219 95.797-13.152 103.989-12.906 0.246 0 0.246 0.25 0 0.25-7.942 2.232-72.471 11.17-103.989 13.152-0.25 0-0.25-0.496 0-0.496zM906.858 359.862c-2.482 7.201-4.469 14.397-6.701 21.344-2.236 7.197-4.219 14.393-6.205 21.594-4.219 14.143-8.192 28.541-12.161 42.684-8.192 28.791-15.884 57.582-23.577 86.618-3.723 14.393-7.447 28.541-11.17 42.934s-7.692 28.791-10.92 43.184c-1.487 6.951-2.482 13.652-2.232 20.849 0.496 7.197 1.737 14.143 2.978 21.344 2.482 14.639 4.714 29.532 7.197 44.175 4.714 29.782 9.929 59.564 14.893 89.346 0.741 3.723 1.237 7.197 1.982 10.92 0 0.246 0.496 0.246 0.496 0-3.969-29.536-8.933-59.068-13.648-88.601-2.232-14.643-4.714-29.041-6.951-43.684-1.241-7.692-2.482-15.139-3.723-22.831-0.991-7.197-1.737-14.643-0.741-21.84 0.991-7.197 2.978-14.148 4.714-21.094 1.737-7.197 3.473-14.148 5.46-21.344 3.723-14.393 7.447-28.791 11.17-42.934 7.442-28.791 15.385-57.582 23.081-86.122l23.822-85.623c0.995-3.473 1.987-6.947 2.978-10.67-0.496-0.246-0.741-0.496-0.741-0.246z"></path>
<path fill="#f7a9a0" d="M819.749 972.874c5.71 1.737 168.022-1.241 173.978-5.21 2.232-1.491 3.228-25.068 3.723-53.858v-0.991c0-5.956-3.228-104.735-3.228-104.735l-105.972 1.741 4.714 103.985v1.737s-61.551 29.041-67.752 34.001c-6.455 5.214-11.17 21.594-5.464 23.331z"></path>
<path fill="#ffc727" d="M997.691 901.644v12.411c-0.246 28.541-1.241 52.367-3.723 53.854-5.956 3.973-168.268 6.951-173.974 5.214-5.71-1.737-0.995-18.117 5.21-23.331 6.205-5.21 67.756-34.001 67.756-34.001v-1.737l-0.5-11.17c18.616-0.496 72.225-0.991 105.23-1.241z"></path>
<path fill="#a6a6a6" d="M819.745 972.874c5.71 1.737 168.022-1.241 173.978-5.21 2.232-1.491 3.224-25.068 3.723-53.858v-0.991l-104.735 0.745v1.737s-61.551 29.037-67.752 34.001c-6.205 5.46-10.92 21.84-5.214 23.577z"></path>
<path fill="#263238" d="M821.481 966.423c27.3-1.241 137.744-3.228 164.794-2.482 0.25 0 0.25 0.246 0 0.246-27.050 1.741-137.495 2.978-164.794 2.732-0.496 0-0.496-0.496 0-0.496zM881.046 914.301c10.674-2.232 23.826-0.741 32.264 6.701 0.25 0.25 0 0.745-0.496 0.745-10.67-3.224-20.599-5.21-31.769-5.956-0.496-0.25-0.741-1.491 0-1.491z"></path>
<path fill="#263238" d="M873.603 919.020c10.67-2.236 23.822-0.745 32.26 6.701 0.25 0.246 0 0.741-0.496 0.741-10.67-3.224-20.599-5.21-31.764-5.956-0.745-0.246-0.995-1.241 0-1.487z"></path>
<path fill="#263238" d="M865.907 923.734c10.674-2.232 23.826-0.745 32.264 6.701 0.25 0.246 0 0.745-0.496 0.745-10.67-3.228-20.599-5.214-31.769-5.96-0.745 0-0.991-1.237 0-1.487z"></path>
<path fill="#37474f" d="M833.397 337.777s2.232 47.403 13.152 84.877c0.745 3.228 1.737 6.205 2.732 9.183 0 0 4.219 0 21.59 10.424l14.393 453.923 116.896-1.241s-18.612-240.488-18.612-255.873c0.246-24.818-13.402-192.59-11.915-196.809 14.397-43.434-9.429-104.489-9.429-104.489h-128.807z"></path>
<path fill="#263238" d="M889.238 874.344c33.006-1.982 96.788-2.482 104.731-1.241 0.25 0 0.25 0.25 0 0.25-8.188 1.487-85.623 2.978-104.731 1.487-0.25 0-0.25-0.246 0-0.496zM882.041 684.732c-2.176-78.617-4.053-133.082-6.196-187.478l0.981 31.371c-1.241-29.282-2.482-58.569-4.219-88.105 0-0.991-1.737-0.991-1.487 0 1.241 52.367 3.224 104.485 4.964 156.852l5.21 156.107c0.991 29.286 1.987 58.573 3.228 88.105 0 0.496 0.741 0.496 0.741 0-0.496-52.367-1.737-104.485-3.224-156.852zM973.369 757.453c-2.482-34.001-4.96-68.252-7.692-102.253-2.482-34.001-4.964-68.248-7.692-102.253-1.241-17.121-2.482-34.001-3.723-51.122-0.745-8.438-1.241-17.125-1.987-25.563s-1.737-16.876-1.487-25.317c0.246-9.179 4.219-17.371 6.451-26.305 1.987-8.438 2.728-17.125 2.728-25.563-0.246-17.871-4.219-35.242-7.942-52.617-0.246-0.991-1.737-0.492-1.487 0.5 3.723 15.884 7.197 32.014 7.942 48.394 0.246 8.192 0 16.38-1.737 24.322-1.491 7.692-4.719 14.889-6.455 22.585-1.982 7.942-0.741 15.884-0.246 24.072 0.745 8.438 1.241 17.125 1.737 25.563 1.241 16.63 2.482 33.505 3.723 50.131 4.964 68.006 9.925 135.758 15.385 203.76 2.982 38.22 5.46 76.44 9.183 114.659 0 0.25 0.496 0.25 0.496 0-1.982-34.746-4.714-68.993-7.197-102.994zM949.547 389.149c-1.987-0.745-4.219-0.991-6.205-1.491-2.351-0.534-4.421-1.302-6.353-2.302l0.147 0.069c-3.723-1.737-7.692-3.973-10.92-6.451-3.473-2.732-5.46-6.205-6.951-10.174-0.991-1.987-1.737-4.219-2.478-6.455-0.5-0.991-0.745-1.987-1.241-3.224-0.25-0.5-1.241-2.732-1.491-3.228h0.25v-0.246c-0.25-0.25-0.25-0.25-0.5-0.25 0 0-0.246 0-0.246 0.246-0.496 0.745 0 1.491 0.246 2.236 0.25 1.487 0.745 2.728 0.995 4.219 0.745 2.478 1.241 4.96 1.987 7.197 1.487 4.465 3.473 8.684 6.947 11.661 3.43 2.962 7.474 5.327 11.902 6.872l0.259 0.079c2.232 0.745 4.469 1.491 6.951 1.987 2.232 0.246 4.465 0.745 6.701 0.496 0.246-0.496 0.246-0.991 0-1.241zM855.482 415.457c-0.246-3.973-0.496-8.192-0.991-12.165-0.745-9.179-1.737-18.608-3.473-27.791-0.25-0.745-1.241-0.496-0.995 0.246l2.236 21.594c0.745 7.197 1.487 14.393 1.737 21.59 0 2.236 0 5.956-2.732 6.455-3.473 0.741-5.21-3.973-6.201-6.455-2.236-6.451-3.478-13.152-4.469-19.608-1.241-7.692-1.737-15.385-2.482-22.831 0-0.246-0.496-0.246-0.496 0 0 15.139 0.246 31.023 5.706 45.416 0.995 2.732 2.982 5.71 6.205 5.956h0.25v0.25c0 0.496 0.246 0.745 0.246 1.241 0 0.25 0.25 0.745 0.25 0.991 0.25 0.745 0.25 1.491 0.496 2.236 0.25 0.741 0.995 0.496 0.995-0.25 0.246 0 0.246-0.246 0.246-0.496 0-1.491-0.496-2.978-0.991-4.219 1.737-0.25 3.224-1.491 3.969-3.228 1.241-2.978 0.745-6.205 0.496-8.933z"></path>
<path fill="#263238" d="M844.562 428.859c11.665 4.714 22.835 10.92 33.505 17.371 0.5 0.25 0 0.991-0.246 0.745-11.17-5.46-22.835-10.674-33.755-16.876-0.991-0.5-0.496-1.491 0.496-1.241zM843.321 276.226c5.915 4.694 12.595 8.911 19.709 12.374l0.644 0.283c-10.92-18.612-9.433-60.555-7.942-54.6 6.451 28.541 24.322 59.814 31.273 61.551 18.362 2.482 34.992-2.482 48.89-10.424-14.148-21.094-13.652-63.533-12.657-61.051 10.424 27.795 32.014 43.926 35.738 43.926 13.898-13.152 21.094-26.305 19.112-27.795-14.397-9.679-26.558-34.746-37.478-61.301-10.92-26.059-16.38-51.126-31.764-74.453-13.902-21.344-41.943-25.313-57.827-14.397-41.447 28.791-16.63 179.188-7.696 185.889z"></path>
<path fill="#263238" d="M886.505 91.828c11.416 2.728 21.098 13.152 27.054 23.081 7.942 12.902 13.402 27.546 19.853 41.447 13.152 27.050 29.532 51.868 50.131 73.708 0.5 0.496-0.246 1.241-0.741 0.745-22.335-16.876-37.724-40.952-50.135-65.769-6.451-12.657-11.416-26.059-17.621-38.715-3.224-6.951-7.197-13.898-12.161-19.853-4.964-5.71-10.67-9.183-17.121-12.411-0.995-0.991-0.5-2.728 0.741-2.232z"></path>
<path fill="#ebebeb" d="M1034.424 632.119l-163.058 29.037-5.956-170.25 115.655-20.849 53.359 162.062z"></path>
<path fill="#4a56e2" d="M981.066 470.057l11.416 169.509 41.943-7.447-53.359-162.062z"></path>
<path fill="#263238" d="M897.675 497.607h-5.956v-33.26c0.246-18.117 15.385-29.532 29.782-30.278 10.92-0.496 24.322 5.214 26.554 23.081 2.232 19.358 2.728 28.541 2.728 28.791l-5.956 0.246s-0.496-9.429-2.728-28.541c-1.491-13.898-11.42-18.362-20.103-17.867-11.915 0.745-24.076 9.925-24.322 24.322v33.505z"></path>
<path fill="#fff" d="M994.468 637.829c2.978-2.978 5.956-5.71 9.179-8.688 2.982-2.732 6.205-5.46 9.433-8.192l0.496-0.246 0.496 0.246c3.228 1.491 6.205 3.228 9.433 4.964 2.978 1.737 6.205 3.478 9.183 5.214-3.228-1.241-6.455-2.732-9.679-3.973-5.223-2.321-8.321-3.815-11.392-5.354l1.959 0.889h0.991c-3.224 2.728-6.451 5.46-9.679 7.938-3.719 2.236-6.947 4.719-10.42 7.201z"></path>
<path fill="#fff" d="M1013.576 621.695c-2.728-10.424-4.964-20.845-7.447-31.519-2.482-10.424-4.714-21.094-6.947-31.519-2.236-10.67-4.469-21.094-6.455-31.769l-3.224-15.884c-0.995-5.21-1.987-10.67-2.978-15.88l3.719 15.634 3.723 15.634c2.482 10.424 4.719 21.094 6.951 31.519 2.232 10.674 4.469 21.098 6.451 31.769 2.236 10.92 4.469 21.344 6.205 32.014z"></path>
<path fill="#263238" d="M902.64 495.87c0.991 4.219-1.737 8.438-6.205 9.429-4.219 0.991-8.438-1.737-9.433-6.205-0.991-4.219 1.741-8.438 6.205-9.429 4.219-0.995 8.438 1.737 9.433 6.205zM955.003 484.45c0.995 4.219-1.737 8.438-6.201 9.433-4.219 0.991-8.438-1.737-9.433-6.205-0.991-4.219 1.737-8.438 6.205-9.429 4.219-0.745 8.688 1.982 9.429 6.201z"></path>
<path fill="#ffc727" d="M1015.562 680.763h-191.349l27.795-194.822h135.508l28.045 194.822z"></path>
<path fill="#000" opacity="0.1" d="M987.517 485.941l-21.094 194.822h49.14l-28.045-194.822z"></path>
<path fill="#263238" d="M890.229 499.343l-5.956-1.241c0-0.25 3.473-16.63 7.197-33.010 3.973-17.867 21.594-26.059 36.233-23.826 10.92 1.741 23.081 10.424 21.344 28.791-1.982 19.608-3.473 28.791-3.473 29.286l-5.956-0.995s1.487-9.429 3.473-28.787c1.491-14.148-7.447-20.599-16.13-22.090-11.915-1.987-26.059 4.714-29.286 19.112-3.973 16.38-7.447 32.51-7.447 32.76z"></path>
<path fill="#fff" d="M968.905 679.277c3.969-2.732 7.942-5.464 12.161-7.942 3.969-2.482 8.188-4.964 12.407-7.447l0.496-0.25 0.5 0.496 9.679 7.447c3.692 2.876 6.761 5.395 9.77 7.983l-0.341-0.287c-3.908-2.225-7.232-4.441-10.391-6.86l0.217 0.159c-3.473-2.236-6.701-4.719-9.929-6.951h0.995c-4.223 2.482-8.442 4.714-12.661 6.951-3.506 2.135-7.738 4.373-12.102 6.372l-0.8 0.329z"></path>
<path fill="#fff" d="M993.968 664.879c-0.741-12.407-1.487-24.818-1.982-37.224l-1.491-37.229c-0.246-12.411-0.745-24.818-0.991-37.229l-0.25-18.612c0-6.205-0.246-12.411-0.246-18.616 0.496 6.205 0.741 12.411 1.237 18.616l0.995 18.612 1.487 37.229c0.25 12.407 0.745 24.818 0.995 37.229 0 12.407 0.246 24.818 0.246 37.224z"></path>
<path fill="#263238" d="M887.251 507.036c4.522 0 8.188-3.666 8.188-8.188s-3.666-8.188-8.188-8.188v0c-4.522 0-8.188 3.666-8.188 8.188s3.666 8.188 8.188 8.188v0zM941.851 507.036c4.524 0 8.192-3.668 8.192-8.192s-3.668-8.192-8.192-8.192v0c-4.524 0-8.192 3.668-8.192 8.192s3.668 8.192 8.192 8.192v0z"></path>
<path fill="#a6a6a6" d="M738.591 131.785l23.081 71.721c0.991 1.991 0 3.973-2.236 3.973l-37.474 2.482c-1.987 0.246-4.469-1.487-5.46-3.473l-23.081-71.721c-0.991-1.991 0-3.973 2.232-3.973l37.478-2.482c1.982 0 4.465 1.487 5.46 3.473z"></path>
<path fill="#dbdbdb" d="M734.122 132.030l23.081 71.725c0.995 1.987 0 3.973-2.232 3.973l-37.474 2.482c-1.987 0.246-4.469-1.491-5.464-3.478l-23.081-71.721c-0.991-1.987 0-3.973 2.236-3.973l37.474-2.482c1.987-0.246 4.469 1.491 5.46 3.473z"></path>
<path fill="#455a64" d="M723.948 136.004c0.246 1.737 1.737 2.978 3.473 2.978 1.694-0.255 2.978-1.7 2.978-3.445 0-0.010 0-0.020 0-0.030v0.002c-0.253-1.694-1.697-2.978-3.441-2.978-0.011 0-0.022 0-0.034 0h0.002c-1.694 0.255-2.978 1.7-2.978 3.445 0 0.010 0 0.020 0 0.030v-0.002z"></path>
<path fill="#f7a9a0" d="M866.902 234.533c-17.871 46.903-61.551 109.199-81.158 110.686-9.429 0.745-26.059 4.219-39.211-5.706-28.541-21.594-54.354-65.024-60.805-90.587-2.232-8.933 40.948-32.264 48.148-25.313 16.626 16.38 37.224 49.385 39.956 48.89 10.174-1.487 47.153-37.224 73.212-62.542 31.023-30.028 26.804 5.71 19.857 24.572zM681.013 201.769c3.473-18.858 7.197-23.327 1.487-40.948-3.723-11.416 1.987-18.862 10.92-9.925 14.643 14.393 15.389 39.707 13.156 48.64l-25.563 2.236z"></path>
<path fill="#f7a9a0" d="M688.456 256.868s-10.174-25.313-8.684-45.916c0.991-14.143 6.947-44.917 45.167-63.779 9.183-4.465 25.068-4.465 12.906 8.192-8.688 8.929-16.876 12.157-20.849 18.113 0 0 20.353 2.482 24.572 11.915 1.737 4.219 6.451 15.634 8.933 25.068 0 0-1.987 0.991-4.465 1.982 0 0 2.978 8.937-2.732 22.335l-54.85 22.090z"></path>
<path fill="#f7a9a0" d="M682.996 197.55c5.46-5.21 16.88-16.13 29.286-21.836 13.898-6.205 42.439-14.643 46.907-4.219 3.228 7.442-7.197 11.665-7.197 11.665s12.407-0.995 13.898 6.451c1.487 6.701-6.951 9.429-6.951 9.429s7.696 0.745 7.696 7.447c0 8.192-16.134 5.46-23.081 13.652-1.491 2.232-60.559-22.585-60.559-22.585z"></path>
<path fill="#263238" d="M716.501 191.599c5.71-4.219 21.344-9.929 35.242-8.688 0.25 0 0.496 0.246 0.25 0.246-15.639 1.741-29.536 6.205-35.492 8.438 0 0.25 0 0 0 0zM723.202 205.496c5.46-2.978 21.84-8.438 35.738-6.455 0.25 0 0.496 0.246 0.25 0.246-16.38 0.995-29.782 4.473-35.987 6.21z"></path>
<path fill="#ffc727" d="M748.765 239.493l-51.868 60.064s44.421 43.43 58.819 46.907c14.393 3.473 25.313 1.241 35.488-1.491 10.174-2.978 59.814-60.555 76.194-107.463 16.38-47.153-1.241-49.39-29.037-20.849-27.8 28.541-62.296 56.586-64.033 54.6-1.737-2.232-25.563-31.764-25.563-31.764z"></path>
<path fill="#000" opacity="0.1" d="M748.765 239.493l-51.868 60.064s44.421 43.43 58.819 46.907c14.393 3.473 25.313 1.241 35.488-1.491 10.174-2.978 59.814-60.555 76.194-107.463 16.38-47.153-1.241-49.39-29.037-20.849-27.8 28.541-62.296 56.586-64.033 54.6-1.737-2.232-25.563-31.764-25.563-31.764z"></path>
<path fill="#263238" d="M758.198 256.123c-2.236 1.987-19.358 21.344-23.331 25.813-3.723 4.219-18.612 22.335-22.335 26.804-0.25 0.246 0 0.496 0.246 0.246 1.987-2.232 4.219-4.219 6.205-6.451s13.652-15.389 17.375-19.608c3.723-4.465 20.599-24.322 22.086-26.554 0.25-0.246 0-0.496-0.246-0.246z"></path>
<path fill="#ffc727" d="M819.499 316.928l-9.683 83.39s135.262-1.987 168.767-5.46c0 0-32.018-154.37-69.243-192.59-18.616-19.108-39.711-16.876-52.863-2.978-3.228 3.473-42.439 58.819-46.162 79.421-3.228 18.608 9.183 38.216 9.183 38.216z"></path>
<path fill="#263238" d="M814.039 303.526c-1.491-4.71-2.482-9.679-2.482-14.643 0-10.174 2.978-20.099 7.442-29.037 2.482-5.21 5.46-10.174 7.942-15.385 0-0.246-0.246-0.246-0.246 0-2.482 3.473-4.469 7.197-6.455 10.67 0-0.246 0-0.246 0.25-0.496 0.496-1.987 1.241-3.973 1.987-5.956 0-0.246-0.25-0.246-0.25-0.246-0.745 1.982-1.491 3.719-2.232 5.706-0.496 1.241-0.745 2.482-0.995 3.723-2.482 4.465-4.465 9.183-6.201 14.143-3.228 9.679-3.723 20.103-0.745 30.032 0.745 2.482 1.987 4.964 2.978 7.447 1.241 2.728 2.978 5.21 4.469 7.692 0 0.246 0.496 0 0.246-0.246-2.482-3.973-4.219-8.688-5.706-13.406z"></path>
<path fill="#f7a9a0" d="M887.251 200.040c-0.991 2.482-16.876 17.121-28.541 14.393-3.973-0.991 0.25-22.090 0.25-22.090v-1.737l-0.745-22.831 29.037-11.665 4.219-1.491s-0.25 6.205-0.496 14.148v2.236c0 1.237 0 2.478-0.25 3.473 0 0.991 0 1.737-0.246 2.728 0 0.995-0.25 1.987-0.25 2.732-0.745 9.679-2.482 19.108-2.978 20.103z"></path>
<path fill="#263238" d="M890.724 168.518c-9.679 16.38-25.068 20.849-31.769 22.086l-0.741-22.831 29.037-11.665 4.219-1.491c-0.25-0.246-0.25 6.205-0.745 13.902z"></path>
<path fill="#f7a9a0" d="M831.16 132.28c-5.46 39.956 17.871 47.653 26.309 48.894 7.692 0.991 34.497 3.723 44.175-35.492 9.679-39.211-7.197-54.354-25.063-57.827-17.621-3.224-39.961 4.465-45.421 44.425z"></path>
<path fill="#263238" d="M841.834 124.092c0.991 0 1.737 0 2.728-0.25 0.991 0 1.987 0 2.732-0.745 0.496-0.246 0.496-1.241 0.246-1.737-0.745-1.241-1.987-1.241-3.473-1.241-1.491 0-2.482 0.496-3.473 1.491-0.745 0.741 0 2.482 1.241 2.482zM868.139 128.061c-1.036-0.244-1.945-0.584-2.796-1.023l0.068 0.032c-0.991-0.5-1.737-0.5-2.482-1.491-0.105-0.201-0.167-0.439-0.167-0.692 0-0.405 0.159-0.773 0.417-1.046l-0.001 0.001c0.991-0.991 2.482-0.745 3.473-0.246 1.241 0.492 2.232 0.991 2.978 2.232 0.991 0.991-0.25 2.482-1.491 2.232zM861.438 137.245l0.25 0.246c-0.496 2.732-0.745 5.96 1.737 7.201v0.246c-3.228-0.991-2.978-5.21-1.987-7.692z"></path>
<path fill="#263238" d="M864.42 135.012c4.465 0.492 3.224 9.179-0.745 8.929-4.219-0.492-2.978-9.429 0.745-8.929z"></path>
<path fill="#263238" d="M865.907 135.508c0.745 0.496 1.241 1.487 2.232 1.737 0.995 0.246 1.987-0.496 2.732-1.487h0.246c-0.246 1.737-0.991 3.224-2.978 3.473-1.737 0-2.728-1.491-2.978-3.473 0.25 0 0.496-0.5 0.745-0.25zM845.804 134.762c-0.246 0 0 0 0 0-0.496 2.978-1.241 5.956-3.723 6.701v0.246c2.978-0.246 3.973-4.219 3.723-6.947z"></path>
<path fill="#263238" d="M843.571 131.535c-4.469-0.741-5.71 7.946-1.737 8.688 4.219 0.745 5.46-7.942 1.737-8.684z"></path>
<path fill="#263238" d="M841.834 132.035c-0.745 0.246-1.491 0.991-2.482 0.991-0.995 0-1.491-1.241-1.987-2.232h-0.25c-0.246 1.737 0 3.473 1.491 3.973 1.491 0.492 2.732-0.75 3.473-2.236 0.25-0.246 0-0.745-0.246-0.496zM857.965 159.089c-0.745 0.492-1.487 1.487-2.482 1.487-0.991 0-1.982-0.5-2.978-0.995 0 0-0.246 0-0.246 0.246 0.741 0.995 1.982 1.991 3.473 1.741 1.241 0 1.987-1.241 2.232-2.232 0.25-0.246 0-0.496 0-0.246zM847.79 147.669l-1.491 5.956c0 0.246 0.5 0.246 0.995 0.496 3.224 0.991 6.947 0.246 9.183-2.232 0.246-0.246 0-0.496-0.25-0.246-2.728 1.487-5.71 1.733-8.688 1.237 0-0.496 2.236-6.701 1.741-6.947-0.995-0.246-3.228 0.246-4.469 0.492 1.987-8.438 5.46-16.376 7.447-24.814 0-0.246-0.25-0.5-0.5-0.246-4.219 8.188-6.701 17.617-9.179 26.305 0.246 1.241 4.465 0.246 5.21 0z"></path>
<path fill="#263238" d="M898.171 145.932c-9.929-0.745-11.665-31.273-11.665-34.996 0 2.482-0.246 14.893-1.241 15.389-0.246 0-1.241-0.246-2.978-0.745 0-1.487 0-2.978-0.246-4.465 0-0.745-0.25 1.487-0.745 4.219-0.504-0.267-1.094-0.445-1.72-0.499l-0.017-0.001c0.096-0.922 0.151-1.992 0.151-3.075 0-2.25-0.237-4.444-0.688-6.559l0.037 0.205c-0.246-1.241-0.741 4.219-1.982 8.684-6.701-1.982-16.38-4.96-25.563-5.456-2.482-0.25-4.469-0.25-6.455-0.25 0.25-3.723 0.745-7.692 0.5-6.701-0.812 1.947-1.423 4.209-1.727 6.567l-0.014 0.134h-2.728c0-5.21 2.728-13.402 1.737-12.161-3.473 4.714-4.964 9.929-5.46 12.657-3.473 0.496-4.469 1.241-4.714 0.246 0-1.733 2.482-16.13 14.148-26.305 12.657-11.17 37.474-13.152 50.627 5.21 0 0 11.17 7.946 12.411 19.857 0.991 12.161-5.956 28.541-11.665 28.045z"></path>
<path fill="#f7a9a0" d="M894.943 147.915s9.433-12.157 14.893-8.684c5.46 3.473-1.987 21.34-8.688 23.327-6.701 2.236-8.933-4.219-8.933-4.219l2.728-10.42z"></path>
<path fill="#263238" d="M907.6 144.441c-4.714 1.737-7.442 5.956-9.429 10.424 1.491-1.737 3.473-2.482 5.71-0.745 0 0 0 0.246-0.25 0.246-1.987-0.492-3.228-0.246-4.714 1.245-0.995 0.991-1.737 2.482-2.482 3.723-0.25 0.492-0.995 0.246-0.745-0.25 0.25-6.205 5.46-14.393 11.911-14.643z"></path>
<path fill="#f7a9a0" d="M916.537 202.269c46.408 37.97 83.886 96.047 85.869 110.69 2.236 16.13-3.473 74.949-18.858 104.731-3.973 7.942-64.033-28.041-60.064-36.483 7.696-16.63 18.862-61.796 17.375-70.73-1.491-8.438-25.068-58.573-41.447-84.877-14.643-24.322-4.469-40.952 17.125-23.331z"></path>
<path fill="#f7a9a0" d="M877.572 452.686c3.969 6.205 11.416 4.219 11.416 4.219s0 5.956 3.723 9.925c4.469 4.719 13.652-0.246 13.652-0.246s1.241 5.956 5.706 9.929c4.714 3.969 14.643 0.496 14.643 0.496s4.219 4.964 10.424 5.46c10.92 0.991 20.849-12.411 27.3-20.599 6.451-8.438 16.876-38.22 19.358-43.68l-53.359-41.697s-39.461 29.286-45.666 40.206c-4.964 8.933-11.665 29.037-7.197 35.987z"></path>
<path fill="#263238" d="M888.242 455.664c3.228-11.17 9.433-20.599 15.139-30.527 0.25-0.246 0.5 0 0.25 0.25-5.71 9.679-9.679 20.599-14.889 30.523-0.25 0.25-0.5 0-0.5-0.246zM905.863 465.592c0.745-2.482 2.482-4.719 3.723-6.951 1.491-2.232 2.978-4.714 4.719-6.947 3.224-4.469 6.451-9.183 9.925-13.402 0.25-0.25 0.496 0 0.25 0.246-3.228 4.469-6.205 9.183-9.183 13.898-1.491 2.236-2.978 4.719-4.469 7.197-1.241 2.236-2.482 4.719-4.465 6.455-0.25 0.246-0.745 0-0.5-0.496zM926.962 476.512c0.496-2.236 2.482-4.219 3.723-5.956 1.487-1.987 2.978-4.223 4.465-6.205 2.978-4.219 5.956-8.192 8.688-12.657 0.25-0.25 0.496 0 0.25 0.246-2.732 4.219-5.46 8.688-8.442 12.906-1.487 2.232-2.728 4.219-4.219 6.205-1.241 1.982-2.482 4.219-4.465 5.46z"></path>
<path fill="#ffc727" d="M894.202 220.635c8.933 25.313 45.167 85.373 44.921 91.083-0.25 5.706-17.871 66.015-17.871 66.015l71.725 43.434s15.884-82.149 9.929-110.69c-4.469-21.84-55.099-85.623-79.667-105.226-24.572-19.362-40.456-16.88-29.037 15.385z"></path>
<path fill="#000" opacity="0.1" d="M894.202 220.635c8.933 25.313 45.167 85.373 44.921 91.083-0.25 5.706-17.871 66.015-17.871 66.015l71.725 43.434s15.884-82.149 9.929-110.69c-4.469-21.84-55.099-85.623-79.667-105.226-24.572-19.362-40.456-16.88-29.037 15.385z"></path>
<path fill="#263238" d="M939.368 308.24c-0.745-4.219-3.228-8.192-5.21-11.911-4.469-8.438-8.937-16.876-13.898-25.068-2.732-4.465-13.402-22.086-16.38-27.795-0.25-0.496-0.995 0-0.745 0.496 1.737 3.478 6.701 12.411 10.424 18.862-0.5-0.745-0.995-1.241-1.737-1.982-0.995-1.241-2.236-2.482-3.228-3.478-1.241-1.241-2.732-2.232-3.723-3.723-0.25-0.246-0.496 0-0.25 0.246 1.987 2.732 4.219 4.968 6.455 7.451 0.991 1.241 2.232 2.482 3.224 3.723 0.745 0.741 1.491 1.737 2.236 2.478 0.246 0.25 0.246 0.5 0.496 0.745 4.714 8.192 8.933 16.384 13.402 24.572 2.232 3.973 4.714 7.942 6.205 12.161 0.741 1.982 1.241 3.973 1.241 6.201-0.25 2.486-0.995 4.964-1.491 7.201-2.482 8.933-4.714 17.867-7.197 27.050-1.241 5.214-2.732 10.424-3.973 15.634-1.241 5.214-2.728 10.424-3.473 15.639 0 0.246 0.496 0.741 0.745 0.246 1.737-4.465 2.978-9.183 4.219-13.648 1.241-4.714 2.732-9.433 3.969-13.898 2.482-9.433 4.964-18.862 7.447-28.541 0.496-3.973 1.987-8.192 1.241-12.657zM992.231 402.555c-19.358-13.652-39.707-26.309-60.555-37.974-0.25 0-0.496 0.246-0.25 0.246 19.358 13.652 39.461 26.558 60.31 37.97 0.496 0.5 0.745 0 0.496-0.246z"></path>
<path fill="#ffc727" d="M242.475 767.382h109.445c0.002 0 0.005 0 0.008 0 14.39 0 26.055-11.665 26.055-26.055 0-0.001 0-0.003 0-0.004v0-205.001c0-7.447 5.21-26.309 27.795-26.309h-137.495c-0.001 0-0.003 0-0.004 0-14.39 0-26.055 11.665-26.055 26.055 0 0.001 0 0.003 0 0.004v0 231.309h0.246z"></path>
<path fill="#000" opacity="0.1" d="M242.475 767.382h109.445c0.002 0 0.005 0 0.008 0 14.39 0 26.055-11.665 26.055-26.055 0-0.001 0-0.003 0-0.004v0-205.001c0-7.447 5.21-26.309 27.795-26.309h-137.495c-0.001 0-0.003 0-0.004 0-14.39 0-26.055 11.665-26.055 26.055 0 0.001 0 0.003 0 0.004v0 231.309h0.246z"></path>
<path fill="#000" opacity="0.010000000000000002" d="M360.612 536.322h-98.288v4.469h98.279v-4.469zM360.612 548.979h-98.288v4.469h98.279v-4.469zM360.612 561.635h-98.288v4.469h98.279v-4.469zM360.612 574.292h-98.288v4.469h98.279v-4.469zM360.612 586.953h-98.288v4.465h98.279v-4.465zM360.612 599.609h-98.288v4.465h98.279v-4.465zM360.612 612.266h-98.288v4.469h98.279v-4.469zM360.612 624.923h-98.288v4.469h98.279v-4.469zM360.612 637.829h-98.288v4.469h98.279v-4.469zM360.612 650.486h-98.288v4.469h98.279v-4.469zM360.612 663.142h-98.288v4.469h98.279v-4.469zM360.612 675.799h-98.288v4.469h98.279v-4.469zM360.612 688.46h-98.288v4.465h98.279v-4.465zM360.612 701.116h-98.288v4.465h98.279v-4.465zM360.612 713.773h-98.288v4.465h98.279v-4.465zM360.612 726.43h-98.288v4.469h98.279v-4.469z"></path>
<path fill="#ffc727" d="M136.749 680.763v247.439h82.891v0.246c0 0.029 0 0.063 0 0.097 0 14.337 11.509 25.985 25.792 26.211h1.012c0.991 0 1.737 0 2.732-0.246l4.96-0.995c1.241-0.496 2.482-0.991 3.478-1.487 0.492-0.25 1.241-0.5 1.737-0.995 0.246-0.246 0.496-0.246 0.745-0.496l2.232-1.487 0.246-0.25c0.5-0.496 0.995-0.745 1.491-1.241l0.745-0.745c2.893-2.906 5.112-6.486 6.399-10.484l0.052-0.186v-0.25c0.246-0.745 0.246-1.241 0.496-1.987 0.25-0.741 0.25-1.737 0.5-2.478v-250.913c0-7.447 5.21-26.309 27.795-26.309h-137.245c-14.393 0.496-26.059 12.161-26.059 26.554z"></path>
<path fill="#000" opacity="0.010000000000000002" d="M253.145 671.085h-98.275v4.469h98.279v-4.469zM262.328 659.419h-98.279v4.469h98.279v-4.469zM253.145 683.741h-98.275v4.469h98.279v-4.469zM253.145 696.402h-98.275v4.465h98.279v-4.465zM253.145 709.304h-98.275v4.469h98.279v-4.469zM253.145 721.961h-98.275v4.469h98.279v-4.469zM253.145 734.622h-98.275v4.465h98.279v-4.465zM253.145 747.278h-98.275v4.469h98.279v-4.469zM253.145 759.935h-98.275v4.469h98.279v-4.469zM253.145 772.592h-98.275v4.469h98.279v-4.469zM253.145 785.248h-98.275v4.469h98.279v-4.469zM253.145 797.909h-98.275v4.465h98.279v-4.465zM253.145 810.811h-98.275v4.469h98.279v-4.469zM253.145 823.468h-98.275v4.469h98.279v-4.469zM253.145 836.129h-98.275v4.465h98.279v-4.465zM253.145 848.785h-98.275v4.465h98.279v-4.465zM253.145 861.442h-98.275v4.465h98.279v-4.465zM253.145 874.099h-98.275v4.469h98.279v-4.469zM253.145 886.755h-98.275v4.469h98.279v-4.469zM253.145 905.122h-49.14v10.424h49.14v-10.424z"></path>
<path fill="#ffc727" d="M351.179 767.382h0.745c0.991 0 1.982 0 2.978-0.25-0.995 0-1.737 0.25-2.732 0.25h-0.991zM404.537 510.013c-14.643 0-26.309 11.915-26.309 26.309v49.635h52.617v-49.635c0-14.393-11.915-26.309-26.309-26.309z"></path>
<path fill="#000" opacity="0.2" d="M404.537 510.013c-14.643 0-26.309 11.915-26.309 26.309v49.635h52.617v-49.635c0-14.393-11.915-26.309-26.309-26.309z"></path>
<path fill="#ffc727" d="M272.257 681.013v86.614h78.426c-14.148-0.246-25.813-11.911-25.813-26.309v-60.305c0-14.643-11.911-26.309-26.309-26.309-7.263 0.013-13.838 2.949-18.614 7.694l0.001-0.001c-4.752 4.719-7.693 11.256-7.693 18.48 0 0.048 0 0.096 0 0.144v-0.007z"></path>
<path fill="#000" opacity="0.2" d="M272.257 681.013v86.614h78.426c-14.148-0.246-25.813-11.911-25.813-26.309v-60.305c0-14.643-11.911-26.309-26.309-26.309-7.263 0.013-13.838 2.949-18.614 7.694l0.001-0.001c-4.752 4.719-7.693 11.256-7.693 18.48 0 0.048 0 0.096 0 0.144v-0.007z"></path>
<path fill="#ffc727" d="M98.279 928.203v0.246c0 0.029 0 0.063 0 0.097 0 14.337 11.509 25.985 25.792 26.211h121.381c-14.148-0.246-25.813-11.911-25.813-26.309v-0.246h-121.36z"></path>
<path fill="#000" opacity="0.2" d="M98.279 928.203v0.246c0 0.029 0 0.063 0 0.097 0 14.337 11.509 25.985 25.792 26.211h121.381c-14.148-0.246-25.813-11.911-25.813-26.309v-0.246h-121.36z"></path>
</svg>
